<svg xmlns="http://www.w3.org/2000/svg" viewBox="0 0 258.75 41.25"><defs><style>.cls-1{fill:#fefefe;}</style></defs><title>Asset 1</title><g id="Layer_2" data-name="Layer 2"><g id="CTA"><g id="Rectangle_4" data-name="Rectangle 4"><rect class="cls-1" width="258.75" height="41.25"/></g><g id="VISIT_OUR_NEW_LOCATION_" data-name="VISIT OUR NEW LOCATION ï”"><path d="M18.06,28.5l-3.7-14.44h2.72l2.54,10.32h0l2.52-10.32h2.7L21.2,28.5Z"/><path d="M29.36,28.5H26.6V14.06h2.76Z"/><path d="M40.6,17.36l-2.48.72a3.51,3.51,0,0,0-.82-1.48,1.65,1.65,0,0,0-1.2-.46,1.48,1.48,0,0,0-1.12.42,1.63,1.63,0,0,0-.4,1.16,1.33,1.33,0,0,0,.55,1,13.17,13.17,0,0,0,1.71,1.06c.62.33,1.12.62,1.51.87a6,6,0,0,1,1.15.92,4.16,4.16,0,0,1,.9,1.29,3.91,3.91,0,0,1,.34,1.68,3.86,3.86,0,0,1-1.22,3,4.79,4.79,0,0,1-3.38,1.12,4.51,4.51,0,0,1-3-1,5.72,5.72,0,0,1-1.76-3.06l2.72-.58A3.26,3.26,0,0,0,35,25.84a1.88,1.88,0,0,0,1.31.58A1.63,1.63,0,0,0,38,24.7a1.72,1.72,0,0,0-.64-1.37,11.31,11.31,0,0,0-2-1.29c-.56-.31-1-.58-1.4-.81a6.76,6.76,0,0,1-1.05-.82,3.76,3.76,0,0,1-.79-1.1,3.24,3.24,0,0,1-.3-1.41,3.89,3.89,0,0,1,1.12-3,4.46,4.46,0,0,1,3.22-1.07,4.37,4.37,0,0,1,2.92,1A4.55,4.55,0,0,1,40.6,17.36Z"/><path d="M46.08,28.5H43.32V14.06h2.76Z"/><path d="M47.9,14.06h9.2V16.5H53.88v12H51.12v-12H47.9Z"/><path d="M64.1,23.86V18.7a6.68,6.68,0,0,1,.33-2.23A3.8,3.8,0,0,1,65.36,15a3.5,3.5,0,0,1,1.43-.84,6.08,6.08,0,0,1,1.87-.26,6,6,0,0,1,1.87.26A3.44,3.44,0,0,1,72,15a3.8,3.8,0,0,1,.93,1.51,6.68,6.68,0,0,1,.33,2.23v5.16a6.68,6.68,0,0,1-.33,2.23A3.87,3.87,0,0,1,72,27.6a3.44,3.44,0,0,1-1.43.84,6.31,6.31,0,0,1-1.87.26,6.4,6.4,0,0,1-1.87-.26,3.5,3.5,0,0,1-1.43-.84,3.87,3.87,0,0,1-.93-1.51A6.68,6.68,0,0,1,64.1,23.86Zm2.76-5.52v5.88a2.22,2.22,0,0,0,.46,1.59,1.86,1.86,0,0,0,1.34.45A1.83,1.83,0,0,0,70,25.81a2.22,2.22,0,0,0,.45-1.59V18.34A2.22,2.22,0,0,0,70,16.75a1.83,1.83,0,0,0-1.35-.45,1.86,1.86,0,0,0-1.34.45A2.22,2.22,0,0,0,66.86,18.34Z"/><path d="M75.64,14.06H78.4v10.1c0,1.4.65,2.1,1.94,2.1s2-.7,2-2.1V14.06h2.76V24.18a4.31,4.31,0,0,1-1.25,3.41,6,6,0,0,1-6.93,0,4.34,4.34,0,0,1-1.24-3.41Z"/><path d="M97.16,28.5h-3l-2.4-5.88H90.48V28.5H87.72V14.06h4a5.27,5.27,0,0,1,3.67,1.12,4.09,4.09,0,0,1,1.23,3.2,4.59,4.59,0,0,1-.53,2.33,3,3,0,0,1-1.65,1.35ZM90.48,16.34v4H91.9a2,2,0,0,0,1.45-.49,2,2,0,0,0,.51-1.51,1.76,1.76,0,0,0-2-2Z"/><path d="M107.12,28.5H104.6V14.06h3l3.84,8.56h0V14.06H114V28.5h-2.64l-4.22-9.32h0Z"/><path d="M124.44,28.5h-7.76V14.06h7.56V16.5h-4.8v3.32h3.66v2.44h-3.66v3.8h5Z"/><path d="M128.94,28.5l-3-14.44h2.56l1.94,9.44h0l2-9.44h2.66l2,9.44h0l1.92-9.44h2.58L138.48,28.5h-2.66l-2-9.88h0l-2.18,9.88Z"/><path d="M156.16,28.5H149V14.06h2.76v12h4.44Z"/><path d="M157.62,23.86V18.7a6.68,6.68,0,0,1,.33-2.23,3.8,3.8,0,0,1,.93-1.51,3.5,3.5,0,0,1,1.43-.84,6.85,6.85,0,0,1,3.74,0,3.5,3.5,0,0,1,1.43.84,3.8,3.8,0,0,1,.93,1.51,6.68,6.68,0,0,1,.33,2.23v5.16a6.68,6.68,0,0,1-.33,2.23,3.87,3.87,0,0,1-.93,1.51,3.5,3.5,0,0,1-1.43.84,6.85,6.85,0,0,1-3.74,0,3.5,3.5,0,0,1-1.43-.84,3.87,3.87,0,0,1-.93-1.51A6.68,6.68,0,0,1,157.62,23.86Zm2.76-5.52v5.88a2.17,2.17,0,0,0,.46,1.59,2.24,2.24,0,0,0,2.69,0,2.22,2.22,0,0,0,.45-1.59V18.34a2.22,2.22,0,0,0-.45-1.59,2.24,2.24,0,0,0-2.69,0A2.17,2.17,0,0,0,160.38,18.34Z"/><path d="M171.52,18.34v5.88a2.17,2.17,0,0,0,.46,1.59,2.24,2.24,0,0,0,2.69,0,2.22,2.22,0,0,0,.45-1.59v-1h2.76v.6a6.68,6.68,0,0,1-.33,2.23,3.87,3.87,0,0,1-.93,1.51,3.44,3.44,0,0,1-1.43.84,6.85,6.85,0,0,1-3.74,0A3.5,3.5,0,0,1,170,27.6a3.87,3.87,0,0,1-.93-1.51,6.68,6.68,0,0,1-.33-2.23V18.7a6.68,6.68,0,0,1,.33-2.23A3.8,3.8,0,0,1,170,15a3.5,3.5,0,0,1,1.43-.84,6.85,6.85,0,0,1,3.74,0,3.44,3.44,0,0,1,1.43.84,3.8,3.8,0,0,1,.93,1.51,6.68,6.68,0,0,1,.33,2.23v0h-2.76v-.4a2.22,2.22,0,0,0-.45-1.59,2.24,2.24,0,0,0-2.69,0A2.17,2.17,0,0,0,171.52,18.34Z"/><path d="M181.82,28.5h-2.66l3.58-14.44h3.54l3.48,14.44h-2.64l-.7-3H182.6Zm2.64-11.32L183.1,23h2.74l-1.34-5.84Z"/><path d="M189.34,14.06h9.2V16.5h-3.22v12h-2.76v-12h-3.22Z"/><path d="M203.12,28.5h-2.76V14.06h2.76Z"/><path d="M205.54,23.86V18.7a6.68,6.68,0,0,1,.33-2.23A3.8,3.8,0,0,1,206.8,15a3.5,3.5,0,0,1,1.43-.84,6.85,6.85,0,0,1,3.74,0,3.44,3.44,0,0,1,1.43.84,3.8,3.8,0,0,1,.93,1.51,6.68,6.68,0,0,1,.33,2.23v5.16a6.68,6.68,0,0,1-.33,2.23,3.87,3.87,0,0,1-.93,1.51,3.44,3.44,0,0,1-1.43.84,6.85,6.85,0,0,1-3.74,0,3.5,3.5,0,0,1-1.43-.84,3.87,3.87,0,0,1-.93-1.51A6.68,6.68,0,0,1,205.54,23.86Zm2.76-5.52v5.88a2.17,2.17,0,0,0,.46,1.59,1.86,1.86,0,0,0,1.34.45,1.83,1.83,0,0,0,1.35-.45,2.22,2.22,0,0,0,.45-1.59V18.34a2.22,2.22,0,0,0-.45-1.59,1.83,1.83,0,0,0-1.35-.45,1.86,1.86,0,0,0-1.34.45A2.17,2.17,0,0,0,208.3,18.34Z"/><path d="M219.6,28.5h-2.52V14.06h3l3.84,8.56h0V14.06h2.52V28.5h-2.64l-4.22-9.32h0Z"/><path d="M237.05,29.24a.92.92,0,0,1-1.32,0l-.86-.86a1,1,0,0,1-.3-.66.89.89,0,0,1,.26-.67l6-6.05-6-6.05a.89.89,0,0,1-.26-.67,1,1,0,0,1,.3-.66l.86-.86a.92.92,0,0,1,1.32,0l7.58,7.58a.84.84,0,0,1,0,1.32Z"/></g></g></g></svg>