<svg xmlns="http://www.w3.org/2000/svg" viewBox="0 0 128.01 79.4"><title>For the Future</title><g id="Layer_2" data-name="Layer 2"><g id="For..."><g id="for_the_future" data-name="for thefuture"><path d="M0,15.26v-1.9H4.61V12q0-6,3.06-9.23A8.7,8.7,0,0,1,14.3,0a4.53,4.53,0,0,1,3.39,1.17A3.87,3.87,0,0,1,18.83,4a2.47,2.47,0,0,1-.64,1.56,2,2,0,0,1-1.66.8,3.12,3.12,0,0,1-1.7-.5,1.72,1.72,0,0,1-.78-1.55,7.66,7.66,0,0,1,.13-1.1,7.88,7.88,0,0,0,.13-1.32A1.07,1.07,0,0,0,13.23,1,3.46,3.46,0,0,0,10,3.24Q8.91,5.49,8.75,10.61c0,.22,0,.67,0,1.34s0,1.15,0,1.41H14.4v1.9H8.71v15a1.93,1.93,0,0,0,1.24,2,9.21,9.21,0,0,0,2.93.55v.9H1.41v-.9a10,10,0,0,0,2-.31c.8-.25,1.21-.93,1.21-2V15.26Z"/><path d="M15.7,23.57a10.73,10.73,0,0,1,3-7.85,10.43,10.43,0,0,1,7.78-3,10.11,10.11,0,0,1,7.63,3A10.45,10.45,0,0,1,37,23.26a12.18,12.18,0,0,1-1.24,5.53,9.77,9.77,0,0,1-3.73,4,11,11,0,0,1-5.87,1.53A10.51,10.51,0,0,1,21,33.05a9.87,9.87,0,0,1-3.82-3.77A11.1,11.1,0,0,1,15.7,23.57Zm4.79-.35a20.27,20.27,0,0,0,.34,3.87,13.35,13.35,0,0,0,1,3.2,5.56,5.56,0,0,0,1.85,2.24,4.64,4.64,0,0,0,2.71.81A4.35,4.35,0,0,0,29.68,32a8.3,8.3,0,0,0,1.91-3.6,19.72,19.72,0,0,0,.58-5,20.62,20.62,0,0,0-.29-3.54,12.89,12.89,0,0,0-.94-3,5.37,5.37,0,0,0-1.79-2.23,4.67,4.67,0,0,0-2.74-.82,4.89,4.89,0,0,0-2.89.86,5.46,5.46,0,0,0-1.85,2.31,14,14,0,0,0-.91,3A19.73,19.73,0,0,0,20.49,23.22Z"/><path d="M39.19,14.35v-.9L46.42,13l.31.26v3.14h.09a10.16,10.16,0,0,1,3-2.71,6.24,6.24,0,0,1,3.1-.91,2.75,2.75,0,0,1,1.93.83,2.55,2.55,0,0,1,.88,1.93,3.22,3.22,0,0,1-.63,2,2.11,2.11,0,0,1-1.75.8c-1.6,0-2.4-.73-2.4-2.18a2.21,2.21,0,0,1,.15-.64,2.25,2.25,0,0,0,.16-.75,4.3,4.3,0,0,0-2.74,1,7,7,0,0,0-1.78,2V30.21a1.94,1.94,0,0,0,1.23,2,9.22,9.22,0,0,0,2.94.55v.9H39.43v-.9a9.78,9.78,0,0,0,2-.31c.81-.25,1.22-.93,1.22-2v-13a3.1,3.1,0,0,0-1.22-2.41A4.61,4.61,0,0,0,39.19,14.35Z"/><path d="M66.53,15.3V13.36h4.39v-7h4v7H81V15.3H74.93V27.36a5.57,5.57,0,0,0,.76,3.18,3.09,3.09,0,0,0,2.71,1.08,2.74,2.74,0,0,0,1.15-.23,2.79,2.79,0,0,0,.73-.49,2.05,2.05,0,0,0,.45-.86c.13-.4.22-.7.26-.89s.09-.54.16-1.06h1a7.55,7.55,0,0,1-1.83,4.3,5.09,5.09,0,0,1-4,1.74q-5.49,0-5.49-6.21V15.3Z"/><path d="M82.14,1.37V.46l8-.46.31.3V16.41h.09A24.59,24.59,0,0,1,93,14.29a8.34,8.34,0,0,1,5-1.59,5.39,5.39,0,0,1,4.51,1.89A8.24,8.24,0,0,1,104,19.82V30.25a2,2,0,0,0,1.2,2,6,6,0,0,0,2,.49v.9H96.5v-.9a10.06,10.06,0,0,0,2.17-.31c.82-.25,1.23-.93,1.23-2V19.56A5.26,5.26,0,0,0,98.79,16a3.33,3.33,0,0,0-2.64-1.3,6.35,6.35,0,0,0-2.8.61,6.49,6.49,0,0,0-1.91,1.25,5.38,5.38,0,0,0-.94,1.29V30.21a2,2,0,0,0,1.21,2,5.7,5.7,0,0,0,2.12.55v.9H83.18v-.9a10,10,0,0,0,2-.31c.82-.25,1.23-.93,1.23-2V4.7A4.57,4.57,0,0,0,86,3.18a2.66,2.66,0,0,0-.83-1.11,4.58,4.58,0,0,0-1.36-.45A11.7,11.7,0,0,0,82.14,1.37Z"/><path d="M109.6,23.31a11.71,11.71,0,0,1,.67-3.95A11.29,11.29,0,0,1,112.16,16a8.92,8.92,0,0,1,3.1-2.39,9.64,9.64,0,0,1,4.14-.89,9.43,9.43,0,0,1,3.79.7,6.21,6.21,0,0,1,2.54,1.91,8.5,8.5,0,0,1,1.37,2.74,11.59,11.59,0,0,1,.45,3.32v.39H114.38v.51a19.64,19.64,0,0,0,.38,4,10.76,10.76,0,0,0,1.16,3.13,5.52,5.52,0,0,0,2.1,2.08,6.2,6.2,0,0,0,3.07.73,9.45,9.45,0,0,0,2.14-.22,4.24,4.24,0,0,0,1.58-.77A6.47,6.47,0,0,0,126,30a20.58,20.58,0,0,0,1.2-1.82l.81.56a10.34,10.34,0,0,1-3.34,4,8.16,8.16,0,0,1-4.79,1.48,11.31,11.31,0,0,1-4.56-.86A8.26,8.26,0,0,1,112.09,31a10.48,10.48,0,0,1-1.87-3.47A14,14,0,0,1,109.6,23.31Zm4.78-2.54,9.07-.09c0-4.66-1.37-7-4.09-7a4.14,4.14,0,0,0-3.51,1.94A9.17,9.17,0,0,0,114.38,20.77Z"/><path d="M9.06,60.42v-1.9h4.61V57.14q0-6,3.06-9.23a8.7,8.7,0,0,1,6.63-2.75,4.54,4.54,0,0,1,3.4,1.17,3.87,3.87,0,0,1,1.14,2.8,2.52,2.52,0,0,1-.64,1.56,2,2,0,0,1-1.66.8,3.16,3.16,0,0,1-1.71-.5,1.72,1.72,0,0,1-.78-1.55,7.66,7.66,0,0,1,.13-1.1A8,8,0,0,0,23.38,47a1.07,1.07,0,0,0-1.09-.87,3.46,3.46,0,0,0-3.24,2.25Q18,50.65,17.82,55.77c0,.22,0,.67,0,1.34s0,1.15,0,1.41h5.69v1.9H17.77v15a1.94,1.94,0,0,0,1.24,2,9.32,9.32,0,0,0,2.93.55v.9H10.47V78a9.77,9.77,0,0,0,2-.31c.81-.25,1.21-.93,1.21-2V60.42Z"/><path d="M24,59.63v-.91l7.26-.55.33.31V72.86a5.38,5.38,0,0,0,1,3.49,3.2,3.2,0,0,0,2.56,1.25,6.13,6.13,0,0,0,5.46-3.08V62.46A3,3,0,0,0,39.4,60.2a6.45,6.45,0,0,0-2.95-.57v-.91l7.9-.55.33.31V74.8A2.79,2.79,0,0,0,45.85,77a4.28,4.28,0,0,0,2.16.59v.91L41,78.94l-.33-.31V75.88h-.13A20.55,20.55,0,0,1,38.1,78a8.36,8.36,0,0,1-4.84,1.38,5.05,5.05,0,0,1-4.4-2,9,9,0,0,1-1.43-5.36V62.59a2.9,2.9,0,0,0-1.19-2.26A4.57,4.57,0,0,0,24,59.63Z"/><path d="M49,60.46V58.52h4.39v-7h4v7h6.13v1.94H57.42V72.52a5.57,5.57,0,0,0,.76,3.18,3.09,3.09,0,0,0,2.71,1.08A2.74,2.74,0,0,0,62,76.55a2.57,2.57,0,0,0,.73-.49,2.05,2.05,0,0,0,.45-.86c.13-.4.22-.7.26-.89s.09-.54.16-1.06h1a7.55,7.55,0,0,1-1.83,4.3,5.09,5.09,0,0,1-4,1.74q-5.49,0-5.49-6.21V60.46Z"/><path d="M65.21,59.63v-.91l7.26-.55.32.31V72.86a5.38,5.38,0,0,0,1,3.49,3.2,3.2,0,0,0,2.55,1.25,6.11,6.11,0,0,0,5.46-3.08V62.46a2.91,2.91,0,0,0-1.17-2.26,6.45,6.45,0,0,0-3-.57v-.91l7.9-.55.33.31V74.8A2.78,2.78,0,0,0,87.1,77a4.35,4.35,0,0,0,2.17.59v.91l-7.06.48-.33-.31V75.88h-.13A21.43,21.43,0,0,1,79.36,78a8.36,8.36,0,0,1-4.84,1.38,5,5,0,0,1-4.4-2,9,9,0,0,1-1.43-5.36V62.59a2.9,2.9,0,0,0-1.19-2.26A4.57,4.57,0,0,0,65.21,59.63Z"/><path d="M91.49,59.52v-.91l7.24-.44.31.26v3.14h.08a10.43,10.43,0,0,1,3-2.71,6.27,6.27,0,0,1,3.1-.91,2.8,2.8,0,0,1,1.94.83,2.55,2.55,0,0,1,.88,1.93,3.22,3.22,0,0,1-.63,2,2.12,2.12,0,0,1-1.75.8c-1.6,0-2.4-.73-2.4-2.18a2.21,2.21,0,0,1,.15-.64,2.53,2.53,0,0,0,.16-.75,4.3,4.3,0,0,0-2.74,1,6.82,6.82,0,0,0-1.78,2V75.37a1.94,1.94,0,0,0,1.23,2,9.09,9.09,0,0,0,2.93.55v.9H91.74V78a9.78,9.78,0,0,0,2-.31c.81-.25,1.21-.93,1.21-2v-13a3.07,3.07,0,0,0-1.21-2.41A4.49,4.49,0,0,0,91.49,59.52Z"/><path d="M109.6,68.47a11.71,11.71,0,0,1,.67-4,11.29,11.29,0,0,1,1.89-3.38,8.92,8.92,0,0,1,3.1-2.39,9.64,9.64,0,0,1,4.14-.89,9.43,9.43,0,0,1,3.79.7,6.21,6.21,0,0,1,2.54,1.91,8.5,8.5,0,0,1,1.37,2.74,11.59,11.59,0,0,1,.45,3.32v.39H114.38v.51a19.64,19.64,0,0,0,.38,4,10.76,10.76,0,0,0,1.16,3.13,5.52,5.52,0,0,0,2.1,2.08,6.2,6.2,0,0,0,3.07.73,9.45,9.45,0,0,0,2.14-.22,4.24,4.24,0,0,0,1.58-.77A6.47,6.47,0,0,0,126,75.2a20.58,20.58,0,0,0,1.2-1.82l.81.56a10.34,10.34,0,0,1-3.34,4,8.16,8.16,0,0,1-4.79,1.48,11.31,11.31,0,0,1-4.56-.86,8.26,8.26,0,0,1-3.23-2.38,10.48,10.48,0,0,1-1.87-3.47A14,14,0,0,1,109.6,68.47Zm4.78-2.54,9.07-.09c0-4.66-1.37-7-4.09-7a4.14,4.14,0,0,0-3.51,1.94A9.17,9.17,0,0,0,114.38,65.93Z"/></g></g></g></svg>