<svg xmlns="http://www.w3.org/2000/svg" viewBox="0 0 187.44 79.49"><title>For Happy Accidents</title><g id="Layer_2" data-name="Layer 2"><g id="For..."><g id="for_happy_accidents" data-name="for happyaccidents"><path d="M0,15.26v-1.9H4.61V12q0-6,3.06-9.23A8.7,8.7,0,0,1,14.3,0a4.53,4.53,0,0,1,3.39,1.17A3.87,3.87,0,0,1,18.83,4a2.49,2.49,0,0,1-.64,1.56,2,2,0,0,1-1.66.8,3.12,3.12,0,0,1-1.7-.5,1.72,1.72,0,0,1-.78-1.55,7.66,7.66,0,0,1,.13-1.1,8,8,0,0,0,.13-1.32A1.07,1.07,0,0,0,13.23,1,3.46,3.46,0,0,0,10,3.24Q8.91,5.49,8.75,10.61c0,.22,0,.67,0,1.34s0,1.15,0,1.41H14.4v1.9H8.71v15a1.93,1.93,0,0,0,1.24,2,9.21,9.21,0,0,0,2.93.55v.9H1.41v-.9a10,10,0,0,0,2-.31c.8-.25,1.21-.93,1.21-2V15.26Z"/><path d="M15.7,23.57a10.73,10.73,0,0,1,3-7.85,10.43,10.43,0,0,1,7.78-3,10.11,10.11,0,0,1,7.63,3A10.47,10.47,0,0,1,37,23.26a12.18,12.18,0,0,1-1.24,5.53,9.77,9.77,0,0,1-3.73,4,11,11,0,0,1-5.87,1.53A10.51,10.51,0,0,1,21,33.05a9.87,9.87,0,0,1-3.82-3.77A11.1,11.1,0,0,1,15.7,23.57Zm4.79-.35a20.27,20.27,0,0,0,.34,3.87,13.35,13.35,0,0,0,1,3.2,5.56,5.56,0,0,0,1.85,2.24,4.64,4.64,0,0,0,2.71.81A4.35,4.35,0,0,0,29.68,32a8.24,8.24,0,0,0,1.91-3.6,19.72,19.72,0,0,0,.58-5,20.62,20.62,0,0,0-.29-3.54,12.89,12.89,0,0,0-.94-3,5.37,5.37,0,0,0-1.79-2.23,4.67,4.67,0,0,0-2.74-.82,4.89,4.89,0,0,0-2.89.86,5.46,5.46,0,0,0-1.85,2.31,13.84,13.84,0,0,0-.91,3A19.73,19.73,0,0,0,20.49,23.22Z"/><path d="M39.19,14.35v-.9L46.42,13l.31.26v3.14h.09a10.16,10.16,0,0,1,3-2.71,6.24,6.24,0,0,1,3.1-.91,2.75,2.75,0,0,1,1.93.83,2.55,2.55,0,0,1,.88,1.93,3.17,3.17,0,0,1-.63,2,2.09,2.09,0,0,1-1.75.81c-1.6,0-2.4-.73-2.4-2.18a2.28,2.28,0,0,1,.15-.64,2.25,2.25,0,0,0,.16-.75,4.3,4.3,0,0,0-2.74,1,7,7,0,0,0-1.78,2V30.21a1.94,1.94,0,0,0,1.23,2,9.22,9.22,0,0,0,2.94.55v.9H39.43v-.9a9.78,9.78,0,0,0,2-.31c.81-.25,1.22-.93,1.22-2v-13a3.1,3.1,0,0,0-1.22-2.41A4.61,4.61,0,0,0,39.19,14.35Z"/><path d="M66.53,1.37V.46l8-.46.31.3V16.41H75a24.59,24.59,0,0,1,2.36-2.12,8.32,8.32,0,0,1,5-1.59,5.4,5.4,0,0,1,4.51,1.89,8.24,8.24,0,0,1,1.48,5.23V30.25a2,2,0,0,0,1.21,2,6,6,0,0,0,2,.49v.9H80.89v-.9a10,10,0,0,0,2.16-.31c.82-.25,1.23-.93,1.23-2V19.56A5.31,5.31,0,0,0,83.18,16a3.36,3.36,0,0,0-2.65-1.3,7,7,0,0,0-4.7,1.86,5.12,5.12,0,0,0-.94,1.29V30.21a2,2,0,0,0,1.21,2,5.65,5.65,0,0,0,2.12.55v.9H67.57v-.9a9.78,9.78,0,0,0,2-.31,1.84,1.84,0,0,0,1.24-2V4.7a5,5,0,0,0-.4-1.53,2.62,2.62,0,0,0-.84-1.1,4.49,4.49,0,0,0-1.35-.45A11.91,11.91,0,0,0,66.53,1.37Z"/><path d="M94.21,29.44a7,7,0,0,1,.34-2.31,4.16,4.16,0,0,1,1-1.66,6.87,6.87,0,0,1,1.35-1,11.22,11.22,0,0,1,1.62-.77c.31-.12,1.45-.51,3.42-1.18a27.54,27.54,0,0,0,4-1.61V18.31a7.57,7.57,0,0,0,0-.81,7.2,7.2,0,0,0-.25-1.15,4.55,4.55,0,0,0-.56-1.28,2.88,2.88,0,0,0-1.09-1,3.41,3.41,0,0,0-1.73-.42,2.28,2.28,0,0,0-.45,0l-.41.07a1.7,1.7,0,0,0-.35.14l-.29.14a1.23,1.23,0,0,0-.27.19l-.24.19-.21.21-.17.19-.17.19-.17.16a5.51,5.51,0,0,0,.27,1.23,5.45,5.45,0,0,1,.27,1.44,1.69,1.69,0,0,1-.81,1.35,3.5,3.5,0,0,1-2.12.59,1.56,1.56,0,0,1-1.4-.67,2.85,2.85,0,0,1-.46-1.66,3.44,3.44,0,0,1,1.1-2.43,7.29,7.29,0,0,1,2.77-1.74,9.71,9.71,0,0,1,3.38-.62c.68,0,1.28,0,1.79.06A11.65,11.65,0,0,1,106,13a5.34,5.34,0,0,1,1.4.47,5.39,5.39,0,0,1,1.12.8,3.73,3.73,0,0,1,.89,1.21,7.62,7.62,0,0,1,.52,1.72,12,12,0,0,1,.19,2.27c0,1.52,0,3.5-.11,5.95s-.11,3.81-.11,4.1a2.61,2.61,0,0,0,.57,1.5,1.81,1.81,0,0,0,1.56.8,1.62,1.62,0,0,0,.64-.12,1,1,0,0,0,.47-.41,4.94,4.94,0,0,0,.29-.55,4.46,4.46,0,0,0,.19-.75c0-.33.09-.59.11-.79s0-.48.08-.87h1a7.43,7.43,0,0,1-1.41,4.44,4.27,4.27,0,0,1-3.4,1.38,3.87,3.87,0,0,1-2.46-.71A4.83,4.83,0,0,1,106,31.11h-.15A8.66,8.66,0,0,1,103,33.42a8,8,0,0,1-3.59.82,5.37,5.37,0,0,1-3.77-1.32A4.52,4.52,0,0,1,94.21,29.44Zm4.1-.66q0,3.62,3.38,3.61a4.13,4.13,0,0,0,2.35-.58A8.14,8.14,0,0,0,105.83,30l.2-7.9c-.74.23-1.36.42-1.87.6s-1.06.39-1.64.63a8.75,8.75,0,0,0-2.59,1.58,4.29,4.29,0,0,0-.89,1,5.29,5.29,0,0,0-.53,1.28A5.56,5.56,0,0,0,98.31,28.78Z"/><path d="M115.29,43a11.94,11.94,0,0,0,2.47-.42c.79-.25,1.19-1,1.19-2.12V17.4a3,3,0,0,0-1.19-2.27,6.05,6.05,0,0,0-2.47-.78v-.7l7.38-.64.34.26v2.32l.17,0a11,11,0,0,1,2.63-2,6.92,6.92,0,0,1,3.48-.9,8.8,8.8,0,0,1,6.82,3,11.33,11.33,0,0,1,2.75,7.9,10.48,10.48,0,0,1-1.47,5.47,10.35,10.35,0,0,1-9,5.13,8.33,8.33,0,0,1-5.2-1.45h-.18v7.4a2,2,0,0,0,1.26,2.12,10.72,10.72,0,0,0,1.53.43,9.08,9.08,0,0,0,1.6.26v.9H115.29Zm7.76-13.36a5.87,5.87,0,0,0,1.74,2.5,4.76,4.76,0,0,0,3.26,1.11,5,5,0,0,0,4.34-2.57,12.88,12.88,0,0,0,1.69-7.09,14.75,14.75,0,0,0-.36-3.32,10.51,10.51,0,0,0-1.08-2.87,5.57,5.57,0,0,0-2-2.08,5.5,5.5,0,0,0-2.91-.77,6,6,0,0,0-4.7,2.25Z"/><path d="M140.76,43a11.94,11.94,0,0,0,2.47-.42c.79-.25,1.19-1,1.19-2.12V17.4a3,3,0,0,0-1.19-2.27,6.05,6.05,0,0,0-2.47-.78v-.7l7.38-.64.34.26v2.32l.17,0a11,11,0,0,1,2.63-2,6.92,6.92,0,0,1,3.48-.9,8.8,8.8,0,0,1,6.82,3,11.33,11.33,0,0,1,2.75,7.9,10.48,10.48,0,0,1-1.47,5.47,10.35,10.35,0,0,1-9,5.13,8.33,8.33,0,0,1-5.2-1.45h-.18v7.4a2,2,0,0,0,1.26,2.12,10.72,10.72,0,0,0,1.53.43,9.08,9.08,0,0,0,1.6.26v.9H140.76Zm7.76-13.36a5.87,5.87,0,0,0,1.74,2.5,4.76,4.76,0,0,0,3.26,1.11,5,5,0,0,0,4.34-2.57,12.89,12.89,0,0,0,1.68-7.09,14.76,14.76,0,0,0-.35-3.32,10.51,10.51,0,0,0-1.08-2.87,5.65,5.65,0,0,0-2-2.08,5.5,5.5,0,0,0-2.91-.77,6,6,0,0,0-4.7,2.25Z"/><path d="M165,14.27v-1h9.9v1.08c-1.67.08-2.5.39-2.5,1a4.85,4.85,0,0,0,.33.95c.31.79,1.07,2.68,2.31,5.68s2.16,5.24,2.75,6.73h.08q3-7.07,4.7-11.55a3.58,3.58,0,0,0,.27-1.26c0-.39-.4-.75-1.2-1.06a9.64,9.64,0,0,0-2.05-.57v-1h7.81v.91a4.55,4.55,0,0,0-1.81.87,4.44,4.44,0,0,0-1.52,1.66q-.6,1.37-2.47,5.85l-2.51,6-2.34,5.82c-.57,1.29-1.11,2.42-1.6,3.4s-.95,1.8-1.36,2.48A10.67,10.67,0,0,1,171.52,43a3.28,3.28,0,0,1-1.05.59,5.19,5.19,0,0,1-1,.24c-.29,0-.66,0-1.1,0a3.83,3.83,0,0,1-1.37-.27,3.12,3.12,0,0,1-1.29-1,2.77,2.77,0,0,1,.12-3.56,2.23,2.23,0,0,1,1.79-.84,2.61,2.61,0,0,1,1.59.52,2,2,0,0,1,.7,1.73v1.59A3.55,3.55,0,0,0,171.45,41,10.83,10.83,0,0,0,173,39c.45-.76.88-1.5,1.26-2.24s.7-1.35.92-1.85l.33-.75Q174.1,30.57,173,28c-.71-1.72-1.51-3.66-2.4-5.8s-1.69-4-2.35-5.7A3.42,3.42,0,0,0,167,15,4.59,4.59,0,0,0,165,14.27Z"/><path d="M7.41,74.6a6.76,6.76,0,0,1,.35-2.31,4.16,4.16,0,0,1,1-1.66,6.55,6.55,0,0,1,1.34-1,10.88,10.88,0,0,1,1.63-.77c.3-.12,1.44-.51,3.42-1.18a27.77,27.77,0,0,0,4-1.61V63.47a7.57,7.57,0,0,0,0-.81,6.23,6.23,0,0,0-.25-1.15,4.28,4.28,0,0,0-.56-1.28,2.85,2.85,0,0,0-1.08-1,3.44,3.44,0,0,0-1.73-.42,2.32,2.32,0,0,0-.46,0,3.27,3.27,0,0,0-.4.07,1.78,1.78,0,0,0-.36.14l-.29.14a2,2,0,0,0-.27.19l-.23.2-.22.2-.16.19-.18.19-.17.17a5.58,5.58,0,0,0,.27,1.22A5.45,5.45,0,0,1,13.32,63a1.69,1.69,0,0,1-.81,1.35A3.47,3.47,0,0,1,10.4,65,1.57,1.57,0,0,1,9,64.31a2.92,2.92,0,0,1-.46-1.66,3.44,3.44,0,0,1,1.1-2.43,7.44,7.44,0,0,1,2.77-1.74,9.72,9.72,0,0,1,3.39-.62c.68,0,1.27,0,1.79.06a11.31,11.31,0,0,1,1.58.22,5.34,5.34,0,0,1,1.4.47,5.72,5.72,0,0,1,1.13.8,3.64,3.64,0,0,1,.88,1.22,6.92,6.92,0,0,1,.52,1.71,12,12,0,0,1,.2,2.27q0,2.28-.11,6c-.08,2.44-.11,3.81-.11,4.1a2.59,2.59,0,0,0,.56,1.5,1.82,1.82,0,0,0,1.56.8,1.71,1.71,0,0,0,.65-.12,1.07,1.07,0,0,0,.46-.41,3.69,3.69,0,0,0,.29-.55,3.11,3.11,0,0,0,.19-.75c0-.33.09-.59.11-.79s.05-.48.08-.87h1a7.43,7.43,0,0,1-1.41,4.44,4.25,4.25,0,0,1-3.39,1.38,3.88,3.88,0,0,1-2.47-.71,4.83,4.83,0,0,1-1.46-2.31h-.15a8.66,8.66,0,0,1-2.88,2.31,8,8,0,0,1-3.59.82,5.34,5.34,0,0,1-3.76-1.32A4.5,4.5,0,0,1,7.41,74.6Zm4.1-.66q0,3.61,3.38,3.61A4.11,4.11,0,0,0,17.24,77,8.14,8.14,0,0,0,19,75.15l.2-7.9c-.74.23-1.36.42-1.87.6s-1.05.39-1.64.63a8.71,8.71,0,0,0-1.44.73,8,8,0,0,0-1.14.85,4.13,4.13,0,0,0-.9,1,5.29,5.29,0,0,0-.53,1.28A6,6,0,0,0,11.51,73.94Z"/><path d="M29.35,68.51a11.38,11.38,0,0,1,.72-4,10.88,10.88,0,0,1,2-3.39,9.37,9.37,0,0,1,3.25-2.36,10.22,10.22,0,0,1,4.26-.89,7.6,7.6,0,0,1,5,1.51,4.7,4.7,0,0,1,1.79,3.72,2.71,2.71,0,0,1-.61,1.85,2.21,2.21,0,0,1-1.75.68,3,3,0,0,1-1.72-.54,1.94,1.94,0,0,1-.82-1.74,3.65,3.65,0,0,1,.4-1.81,2.54,2.54,0,0,0,.39-1,1.68,1.68,0,0,0-.8-1.3,4,4,0,0,0-1.9-.36,4.2,4.2,0,0,0-2,.5,5.48,5.48,0,0,0-1.73,1.54,8.17,8.17,0,0,0-1.26,2.9,17.56,17.56,0,0,0-.47,4.33,11.92,11.92,0,0,0,1.7,6.67,5.26,5.26,0,0,0,4.61,2.61,6.66,6.66,0,0,0,3.77-1,8.9,8.9,0,0,0,2.64-3l.86.64a11.2,11.2,0,0,1-3.55,3.88,8.34,8.34,0,0,1-4.8,1.51c-3.23,0-5.71-1-7.44-3A11.7,11.7,0,0,1,29.35,68.51Z"/><path d="M49,68.51a11.38,11.38,0,0,1,.72-4,10.88,10.88,0,0,1,2-3.39A9.37,9.37,0,0,1,55,58.75a10.22,10.22,0,0,1,4.26-.89,7.6,7.6,0,0,1,5,1.51,4.7,4.7,0,0,1,1.79,3.72,2.71,2.71,0,0,1-.61,1.85,2.21,2.21,0,0,1-1.75.68A3,3,0,0,1,62,65.08a1.94,1.94,0,0,1-.82-1.74,3.65,3.65,0,0,1,.4-1.81,2.54,2.54,0,0,0,.39-1,1.68,1.68,0,0,0-.8-1.3,4,4,0,0,0-1.9-.36,4.2,4.2,0,0,0-2,.5,5.48,5.48,0,0,0-1.73,1.54,8.17,8.17,0,0,0-1.26,2.9,17.56,17.56,0,0,0-.47,4.33,11.92,11.92,0,0,0,1.7,6.67,5.26,5.26,0,0,0,4.61,2.61,6.66,6.66,0,0,0,3.77-1,8.9,8.9,0,0,0,2.64-3l.86.64a11.2,11.2,0,0,1-3.55,3.88A8.34,8.34,0,0,1,59,79.4c-3.23,0-5.71-1-7.44-3A11.7,11.7,0,0,1,49,68.51Z"/><path d="M68.05,59.58v-.9l7.68-.51.3.31V75.33a2.05,2.05,0,0,0,1.24,2.07,6.56,6.56,0,0,0,2,.55v.9H68.74V78a9.78,9.78,0,0,0,2-.31c.81-.25,1.21-.92,1.21-2V62.7a2.9,2.9,0,0,0-1.21-2.26,6.77,6.77,0,0,0-2.67-.86ZM71,49.33a2.84,2.84,0,0,1,.77-2,2.45,2.45,0,0,1,1.85-.84,2.86,2.86,0,0,1,2,.77,2.5,2.5,0,0,1,.8,1.88,2.94,2.94,0,0,1-.81,2.08,2.68,2.68,0,0,1-2,.87,2.49,2.49,0,0,1-1.85-.81A2.71,2.71,0,0,1,71,49.33Z"/><path d="M81.64,68.38a10.53,10.53,0,0,1,.87-4.25,10.13,10.13,0,0,1,2.32-3.35,11.34,11.34,0,0,1,3.35-2.14,10.23,10.23,0,0,1,3.92-.78c.34,0,.68,0,1,0a8.3,8.3,0,0,1,.95.11c.28,0,.57.1.87.17l.75.2.66.21.52.19.42.16.27.12v-9a3.34,3.34,0,0,0-1.18-2.6,5.14,5.14,0,0,0-1.74-.67,13.21,13.21,0,0,0-2.24-.37v-.9l8.93-.42.33.27V74.75A2.86,2.86,0,0,0,102.83,77a6,6,0,0,0,2.67.59v.91l-7.57.48-.33-.31V76.69l-.18,0a10.63,10.63,0,0,1-2.56,1.94,6.89,6.89,0,0,1-3.42.86,9.12,9.12,0,0,1-7-3.06A11.32,11.32,0,0,1,81.64,68.38Zm4.78.48a13.24,13.24,0,0,0,.66,4.3,7.12,7.12,0,0,0,2.18,3.23A5.51,5.51,0,0,0,93,77.68a5,5,0,0,0,2.52-.59,9,9,0,0,0,2.08-1.72V62.6A6.22,6.22,0,0,0,95.82,60a4.8,4.8,0,0,0-3.35-1.15,5,5,0,0,0-4.34,2.73A13.55,13.55,0,0,0,86.42,68.86Z"/><path d="M107.19,68.47a11.72,11.72,0,0,1,.68-4,11.29,11.29,0,0,1,1.89-3.38,8.74,8.74,0,0,1,3.1-2.39,9.58,9.58,0,0,1,4.14-.89,9.41,9.41,0,0,1,3.78.7,6.18,6.18,0,0,1,2.55,1.91,8.7,8.7,0,0,1,1.37,2.74,11.6,11.6,0,0,1,.44,3.32v.39H112v.51a19.68,19.68,0,0,0,.37,4,10.49,10.49,0,0,0,1.17,3.13,5.52,5.52,0,0,0,2.1,2.08,6.17,6.17,0,0,0,3.07.73,8.77,8.77,0,0,0,2.13-.22,4.36,4.36,0,0,0,1.59-.77,6.8,6.8,0,0,0,1.19-1.21,18.77,18.77,0,0,0,1.19-1.82l.82.56a10.28,10.28,0,0,1-3.35,4,8.13,8.13,0,0,1-4.78,1.48,11.24,11.24,0,0,1-4.56-.86,8.19,8.19,0,0,1-3.23-2.38,10.48,10.48,0,0,1-1.87-3.47A13.67,13.67,0,0,1,107.19,68.47ZM112,65.93l9.06-.09q0-7-4.09-7a4.16,4.16,0,0,0-3.51,1.94A9.25,9.25,0,0,0,112,65.93Z"/><path d="M127.57,59.51v-.9l7.23-.44.31.26v3.14h.09c.07-.08.25-.25.52-.51l.54-.53.54-.5a5.82,5.82,0,0,1,.62-.5l.62-.43a5,5,0,0,1,.73-.42l.77-.32a4.87,4.87,0,0,1,.9-.28c.28-.06.61-.11,1-.15a8.07,8.07,0,0,1,1.11-.07,5.5,5.5,0,0,1,4.56,1.9A8.08,8.08,0,0,1,148.61,65V75.41a2,2,0,0,0,1.19,2,6.05,6.05,0,0,0,2,.49v.9H141.11V78a10.35,10.35,0,0,0,2.16-.31c.82-.25,1.23-.93,1.23-2V64.72a5.25,5.25,0,0,0-1.1-3.53,3.33,3.33,0,0,0-2.64-1.3,6.35,6.35,0,0,0-2.8.61,6.49,6.49,0,0,0-1.91,1.25,5.38,5.38,0,0,0-.94,1.29V75.37a2,2,0,0,0,1.24,2,6.06,6.06,0,0,0,2.11.55v.9H127.81V78a10,10,0,0,0,2-.31c.81-.25,1.21-.93,1.21-2v-13a3.1,3.1,0,0,0-1.21-2.41A4.64,4.64,0,0,0,127.57,59.51Z"/><path d="M152.78,60.46V58.52h4.38v-7h4v7h6.13v1.94h-6.08V72.53a5.56,5.56,0,0,0,.75,3.17,3.1,3.1,0,0,0,2.72,1.08,2.66,2.66,0,0,0,1.14-.23,2.87,2.87,0,0,0,.74-.49,2.18,2.18,0,0,0,.45-.86,9.23,9.23,0,0,0,.25-.89c0-.19.09-.54.17-1.06h1a7.62,7.62,0,0,1-1.84,4.3,5.08,5.08,0,0,1-4,1.74c-3.66,0-5.48-2.07-5.48-6.21V60.46Z"/><path d="M169.84,72.13h.95a7.34,7.34,0,0,0,.79,1.94A12.68,12.68,0,0,0,173,76.14a7.46,7.46,0,0,0,2.08,1.68,5,5,0,0,0,2.51.68q4.23,0,4.23-3.93A3,3,0,0,0,180.63,72a13.06,13.06,0,0,0-4.06-1.77q-6.15-1.84-6.15-6.46a5.45,5.45,0,0,1,1.84-4.24,7.12,7.12,0,0,1,4.93-1.66A8.4,8.4,0,0,1,181.88,59l.38-1.17h1.37L184,64h-1.37a6.46,6.46,0,0,0-1.88-3.63,5,5,0,0,0-3.68-1.56,3.52,3.52,0,0,0-2.72.91,3.43,3.43,0,0,0-.8,2.36,4.81,4.81,0,0,0,.11,1.13,2,2,0,0,0,.45.89,5.68,5.68,0,0,0,.65.65,4.46,4.46,0,0,0,1.07.58c.51.21.94.38,1.3.51s.93.31,1.71.57a11.74,11.74,0,0,1,4.6,2.51A5.49,5.49,0,0,1,185,73.08a5.69,5.69,0,0,1-2.16,4.66,8.32,8.32,0,0,1-5.42,1.75,9.59,9.59,0,0,1-3.15-.55A6.76,6.76,0,0,1,172,77.77l-.46,1.3h-1.48Z"/></g></g></g></svg>