<svg xmlns="http://www.w3.org/2000/svg" viewBox="0 0 244.33 89.06"><title>Asset 4</title><g id="Layer_2" data-name="Layer 2"><g id="For..."><g id="for_undoing_asumptions" data-name="for undoingasumptions"><path d="M14,15.26v-1.9h4.61V12q0-6,3.06-9.23A8.7,8.7,0,0,1,28.32,0a4.54,4.54,0,0,1,3.4,1.17A3.87,3.87,0,0,1,32.86,4a2.52,2.52,0,0,1-.64,1.56,2,2,0,0,1-1.66.8,3.16,3.16,0,0,1-1.71-.5,1.72,1.72,0,0,1-.78-1.55,7.66,7.66,0,0,1,.13-1.1,7.88,7.88,0,0,0,.13-1.32A1.06,1.06,0,0,0,27.25,1,3.46,3.46,0,0,0,24,3.24q-1.08,2.25-1.23,7.37c0,.22,0,.67,0,1.34s0,1.15,0,1.41h5.69v1.9H22.73v15a1.94,1.94,0,0,0,1.24,2,9.32,9.32,0,0,0,2.93.55v.9H15.44v-.9a9.78,9.78,0,0,0,2-.31c.81-.25,1.21-.93,1.21-2V15.26Z"/><path d="M29.73,23.57a10.72,10.72,0,0,1,3-7.85,10.46,10.46,0,0,1,7.79-3,10.11,10.11,0,0,1,7.62,3A10.45,10.45,0,0,1,51,23.26a12.3,12.3,0,0,1-1.23,5.53,9.79,9.79,0,0,1-3.74,4,11,11,0,0,1-5.86,1.53A10.52,10.52,0,0,1,35,33.05a9.85,9.85,0,0,1-3.81-3.77A11,11,0,0,1,29.73,23.57Zm4.78-.35a20.27,20.27,0,0,0,.34,3.87,12.92,12.92,0,0,0,1,3.2,5.54,5.54,0,0,0,1.84,2.24,4.64,4.64,0,0,0,2.71.81A4.35,4.35,0,0,0,43.7,32a8.09,8.09,0,0,0,1.91-3.6,19.7,19.7,0,0,0,.59-5,19.63,19.63,0,0,0-.3-3.54,12.89,12.89,0,0,0-.94-3,5.37,5.37,0,0,0-1.79-2.23,4.65,4.65,0,0,0-2.74-.82,4.86,4.86,0,0,0-2.88.86,5.31,5.31,0,0,0-1.85,2.31,13,13,0,0,0-.91,3A18.73,18.73,0,0,0,34.51,23.22Z"/><path d="M53.21,14.35v-.9L60.44,13l.31.26v3.14h.09a10.16,10.16,0,0,1,3-2.71,6.24,6.24,0,0,1,3.1-.91,2.74,2.74,0,0,1,1.93.83,2.56,2.56,0,0,1,.89,1.93,3.17,3.17,0,0,1-.64,2,2.1,2.1,0,0,1-1.74.8c-1.61,0-2.41-.73-2.41-2.18a2,2,0,0,1,.16-.64,2.47,2.47,0,0,0,.15-.75,4.29,4.29,0,0,0-2.73,1,6.87,6.87,0,0,0-1.79,2V30.21a1.93,1.93,0,0,0,1.24,2,9.09,9.09,0,0,0,2.93.55v.9H53.45v-.9a10,10,0,0,0,2-.31c.81-.25,1.21-.93,1.21-2v-13a3.1,3.1,0,0,0-1.21-2.41A4.64,4.64,0,0,0,53.21,14.35Z"/><path d="M81.13,14.46v-.9L88.39,13l.32.31V27.7a5.38,5.38,0,0,0,1,3.49,3.2,3.2,0,0,0,2.56,1.25,6.13,6.13,0,0,0,5.46-3.08V17.3A3,3,0,0,0,96.58,15a6.56,6.56,0,0,0-3-.58v-.9l7.9-.55.33.31V29.64A2.76,2.76,0,0,0,103,31.8a4.28,4.28,0,0,0,2.16.59v.91l-7.06.48-.33-.31V30.72h-.13a20.55,20.55,0,0,1-2.39,2.14,8.36,8.36,0,0,1-4.84,1.38,5,5,0,0,1-4.4-2,9,9,0,0,1-1.43-5.36V17.43a2.9,2.9,0,0,0-1.19-2.26A4.68,4.68,0,0,0,81.13,14.46Z"/><path d="M107.41,14.35v-.9l7.24-.44.31.26v3.14H115l.52-.51.54-.53.54-.5a5.82,5.82,0,0,1,.62-.5l.63-.43a3.88,3.88,0,0,1,.73-.42l.77-.32a4.78,4.78,0,0,1,.89-.28c.29-.06.61-.11,1-.15a8.07,8.07,0,0,1,1.11-.07,5.47,5.47,0,0,1,4.56,1.9,8.08,8.08,0,0,1,1.53,5.22V30.25a2,2,0,0,0,1.19,2,6.05,6.05,0,0,0,2,.49v.9H121v-.9a10.35,10.35,0,0,0,2.16-.31,1.84,1.84,0,0,0,1.24-2V19.56a5.31,5.31,0,0,0-1.1-3.53,3.36,3.36,0,0,0-2.65-1.3,6.38,6.38,0,0,0-2.8.61,6.63,6.63,0,0,0-1.91,1.25,5.06,5.06,0,0,0-.93,1.29V30.21a2,2,0,0,0,1.23,2,6.11,6.11,0,0,0,2.12.55v.9H107.66v-.9a9.78,9.78,0,0,0,2-.31c.81-.25,1.21-.93,1.21-2v-13a3.07,3.07,0,0,0-1.21-2.41A4.61,4.61,0,0,0,107.41,14.35Z"/><path d="M134.08,23.22A10.56,10.56,0,0,1,135,19a10.13,10.13,0,0,1,2.32-3.35,11.22,11.22,0,0,1,3.35-2.14,10.19,10.19,0,0,1,3.92-.78c.34,0,.68,0,1,.05a8.3,8.3,0,0,1,.95.11c.28,0,.57.1.87.17l.75.2.66.21.52.19.42.16.27.12V5a3.32,3.32,0,0,0-1.18-2.6,5.36,5.36,0,0,0-1.74-.67,13.21,13.21,0,0,0-2.24-.37V.42L153.77,0l.33.27V29.59a2.84,2.84,0,0,0,1.17,2.21,6,6,0,0,0,2.66.59v.91l-7.56.48-.33-.31V31.53l-.18,0a10.83,10.83,0,0,1-2.56,1.94,6.89,6.89,0,0,1-3.42.86,9.1,9.1,0,0,1-7-3.06A11.32,11.32,0,0,1,134.08,23.22Zm4.78.48a13.24,13.24,0,0,0,.66,4.3,7.18,7.18,0,0,0,2.18,3.23,5.51,5.51,0,0,0,3.7,1.29,5,5,0,0,0,2.52-.59A9,9,0,0,0,150,30.21V17.44a6.22,6.22,0,0,0-1.74-2.6,4.8,4.8,0,0,0-3.35-1.15,5,5,0,0,0-4.34,2.73A13.55,13.55,0,0,0,138.86,23.7Z"/><path d="M159.57,23.57a10.73,10.73,0,0,1,3-7.85,10.42,10.42,0,0,1,7.78-3,10.11,10.11,0,0,1,7.62,3,10.45,10.45,0,0,1,2.88,7.57,12.3,12.3,0,0,1-1.23,5.53,9.79,9.79,0,0,1-3.74,4A11,11,0,0,1,170,34.33a10.55,10.55,0,0,1-5.15-1.28A9.85,9.85,0,0,1,161,29.28,11,11,0,0,1,159.57,23.57Zm4.78-.35a21.12,21.12,0,0,0,.34,3.87,12.92,12.92,0,0,0,1,3.2,5.48,5.48,0,0,0,1.85,2.24,4.6,4.6,0,0,0,2.7.81A4.35,4.35,0,0,0,173.54,32a8.21,8.21,0,0,0,1.92-3.6,20.18,20.18,0,0,0,.58-5,19.63,19.63,0,0,0-.3-3.54,13.36,13.36,0,0,0-.93-3,5.47,5.47,0,0,0-1.8-2.23,4.65,4.65,0,0,0-2.74-.82,4.88,4.88,0,0,0-2.88.86,5.38,5.38,0,0,0-1.85,2.31,13.47,13.47,0,0,0-.91,3A18.73,18.73,0,0,0,164.35,23.22Z"/><path d="M182.65,14.42v-.9l7.68-.51.31.31V30.17a2,2,0,0,0,1.23,2.07,6.62,6.62,0,0,0,2,.55v.9H183.34v-.9a9.78,9.78,0,0,0,2-.31c.81-.25,1.22-.92,1.22-2V17.54a2.9,2.9,0,0,0-1.22-2.26,5.55,5.55,0,0,0-1.25-.56A5.17,5.17,0,0,0,182.65,14.42Zm2.94-10.25a2.89,2.89,0,0,1,.77-2,2.45,2.45,0,0,1,1.85-.84,2.86,2.86,0,0,1,2,.77A2.51,2.51,0,0,1,191.06,4a3,3,0,0,1-.82,2.08,2.66,2.66,0,0,1-2,.87,2.49,2.49,0,0,1-1.85-.81A2.75,2.75,0,0,1,185.59,4.17Z"/><path d="M196,14.35v-.9l7.23-.44.31.26v3.14h.09q.1-.12.51-.51c.28-.27.46-.44.54-.53l.55-.5a6,6,0,0,1,.61-.5l.63-.43a3.88,3.88,0,0,1,.73-.42l.77-.32a5,5,0,0,1,.89-.28c.29-.06.61-.11,1-.15A8.22,8.22,0,0,1,211,12.7a5.5,5.5,0,0,1,4.56,1.9A8.13,8.13,0,0,1,217,19.82V30.25a2,2,0,0,0,1.2,2,6,6,0,0,0,2,.49v.9H209.54v-.9a10.45,10.45,0,0,0,2.16-.31c.82-.25,1.23-.93,1.23-2V19.56a5.31,5.31,0,0,0-1.1-3.53,3.36,3.36,0,0,0-2.65-1.3,7,7,0,0,0-4.7,1.86,5.12,5.12,0,0,0-.94,1.29V30.21a2,2,0,0,0,1.23,2,6.11,6.11,0,0,0,2.12.55v.9H196.24v-.9a9.78,9.78,0,0,0,2-.31c.81-.25,1.22-.93,1.22-2v-13a3.1,3.1,0,0,0-1.22-2.41A4.61,4.61,0,0,0,196,14.35Z"/><path d="M222,38.36a4,4,0,0,1,1.8-3.33A9,9,0,0,1,229,33.6v-.3c-.47-.14-.87-.26-1.19-.37a9,9,0,0,1-1.22-.53,5.69,5.69,0,0,1-1.19-.76,3.49,3.49,0,0,1-.8-1,2.81,2.81,0,0,1-.34-1.37,2.74,2.74,0,0,1,.31-1.32,3.09,3.09,0,0,1,1.05-1.05,12.51,12.51,0,0,1,1.13-.66c.26-.12.69-.3,1.28-.54a1.83,1.83,0,0,0,.26-.11v-.25a9.46,9.46,0,0,1-3.66-2.51,5.27,5.27,0,0,1-1.3-3.51,5.82,5.82,0,0,1,2.27-4.8,8.88,8.88,0,0,1,5.68-1.8A12.49,12.49,0,0,1,234,13a19.54,19.54,0,0,1,2.3.65,5.55,5.55,0,0,0,1.08.33,9.46,9.46,0,0,1,2.2-1A8.57,8.57,0,0,1,242,12.7a2.5,2.5,0,0,1,1.66.62,1.91,1.91,0,0,1,.72,1.48,2.32,2.32,0,0,1-.57,1.64,2,2,0,0,1-1.57.63,1.64,1.64,0,0,1-1.52-.72,4.49,4.49,0,0,1-.44-2.24,5.85,5.85,0,0,0-1.64.18,3.48,3.48,0,0,0-1.14.6v.31a6.85,6.85,0,0,1,1.23,2.07,6.52,6.52,0,0,1,.45,2.26,5.59,5.59,0,0,1-2.32,4.6,8.36,8.36,0,0,1-5.26,1.8H229c-1,.52-1.57,1.18-1.57,2a2,2,0,0,0,.33,1.19,1.9,1.9,0,0,0,1.11.67,7.21,7.21,0,0,0,1.28.26c.32,0,.87.06,1.63.09l.49,0c.52,0,1.44.06,2.78.14s2.08.13,2.23.13a6.11,6.11,0,0,1,4,1.79A5.72,5.72,0,0,1,243,36.52a6.32,6.32,0,0,1-2.86,5.34q-2.87,2-8.42,2-5.1,0-7.4-1.42A4.55,4.55,0,0,1,222,38.36Zm4.1.26a3.55,3.55,0,0,0,1.56,2.81,7.69,7.69,0,0,0,4.81,1.24,8.43,8.43,0,0,0,5.1-1.34,4.56,4.56,0,0,0,1.8-3.91,4.83,4.83,0,0,0-.12-1.15,2.74,2.74,0,0,0-.65-1.09,3.36,3.36,0,0,0-1.53-.89,56,56,0,0,0-7-.33,5.64,5.64,0,0,0-3.1,1.53A4.64,4.64,0,0,0,226.12,38.62Zm1.3-19.36a7.4,7.4,0,0,0,1,4.06,3.23,3.23,0,0,0,5.59,0,7.44,7.44,0,0,0,1-3.95,8,8,0,0,0-.95-4.07,3.18,3.18,0,0,0-2.94-1.63Q227.42,13.69,227.42,19.26Z"/><path d="M0,74.6a7.12,7.12,0,0,1,.35-2.32,4.2,4.2,0,0,1,1-1.65,6.55,6.55,0,0,1,1.34-1,10.88,10.88,0,0,1,1.63-.77c.3-.12,1.44-.51,3.42-1.18a28.56,28.56,0,0,0,4-1.61V63.47a7.65,7.65,0,0,0,0-.81,6.23,6.23,0,0,0-.25-1.15,4.54,4.54,0,0,0-.55-1.28,3,3,0,0,0-1.09-1,3.44,3.44,0,0,0-1.73-.42,2.32,2.32,0,0,0-.46,0,3.27,3.27,0,0,0-.4.07,1.78,1.78,0,0,0-.36.14l-.29.14a2,2,0,0,0-.27.19l-.23.2a1.77,1.77,0,0,0-.21.2L5.72,60l-.18.19-.17.17a5.58,5.58,0,0,0,.27,1.22A5.45,5.45,0,0,1,5.91,63a1.69,1.69,0,0,1-.81,1.35A3.47,3.47,0,0,1,3,65a1.57,1.57,0,0,1-1.41-.67,2.92,2.92,0,0,1-.46-1.66,3.44,3.44,0,0,1,1.1-2.43A7.44,7.44,0,0,1,5,58.48a9.76,9.76,0,0,1,3.39-.62c.68,0,1.27,0,1.79.06a11.31,11.31,0,0,1,1.58.22,5.22,5.22,0,0,1,1.4.47,5.72,5.72,0,0,1,1.13.8,3.64,3.64,0,0,1,.88,1.22,6.92,6.92,0,0,1,.52,1.71,12,12,0,0,1,.2,2.27q0,2.28-.11,6c-.08,2.44-.11,3.81-.11,4.1a2.59,2.59,0,0,0,.56,1.5,1.82,1.82,0,0,0,1.56.8,1.67,1.67,0,0,0,.65-.12,1,1,0,0,0,.46-.41,3.69,3.69,0,0,0,.29-.55,3.11,3.11,0,0,0,.19-.75c.05-.33.09-.59.11-.79s.05-.48.08-.87h1a7.5,7.5,0,0,1-1.4,4.44,4.29,4.29,0,0,1-3.4,1.38,3.88,3.88,0,0,1-2.47-.71,4.83,4.83,0,0,1-1.46-2.31h-.15a8.66,8.66,0,0,1-2.88,2.31,8,8,0,0,1-3.59.82,5.34,5.34,0,0,1-3.76-1.32A4.5,4.5,0,0,1,0,74.6Zm4.1-.66q0,3.61,3.38,3.61A4.11,4.11,0,0,0,9.83,77a8.14,8.14,0,0,0,1.79-1.82l.2-7.9c-.74.23-1.36.42-1.87.6s-1,.39-1.64.63a8.71,8.71,0,0,0-1.44.73,8,8,0,0,0-1.14.85,4.13,4.13,0,0,0-.9,1,5.29,5.29,0,0,0-.53,1.28A6,6,0,0,0,4.1,73.94Z"/><path d="M21.94,72.13h.95a7.28,7.28,0,0,0,.78,1.94,12.76,12.76,0,0,0,1.45,2.07,7.32,7.32,0,0,0,2.08,1.68,5.14,5.14,0,0,0,2.5.68q4.25,0,4.24-3.93A3.08,3.08,0,0,0,32.72,72a13.25,13.25,0,0,0-4-1.76q-6.15-1.84-6.15-6.46a5.45,5.45,0,0,1,1.84-4.24,7.09,7.09,0,0,1,4.92-1.66A8.44,8.44,0,0,1,34,59l.38-1.17h1.37L36.08,64H34.71a6.52,6.52,0,0,0-1.88-3.63,5,5,0,0,0-3.68-1.56,3.51,3.51,0,0,0-2.72.91,3.42,3.42,0,0,0-.81,2.36,5.41,5.41,0,0,0,.11,1.13,2.17,2.17,0,0,0,.46.89,5,5,0,0,0,.65.65,4.62,4.62,0,0,0,1.07.58c.5.21.94.38,1.3.51s.93.31,1.71.57A11.82,11.82,0,0,1,35.51,69a5.5,5.5,0,0,1,1.56,4.13,5.69,5.69,0,0,1-2.16,4.66,8.33,8.33,0,0,1-5.43,1.75,9.54,9.54,0,0,1-3.14-.55,6.66,6.66,0,0,1-2.24-1.17l-.46,1.3H22.16Z"/><path d="M40.09,72.13H41a7.28,7.28,0,0,0,.78,1.94,12.76,12.76,0,0,0,1.45,2.07,7.32,7.32,0,0,0,2.08,1.68,5.14,5.14,0,0,0,2.5.68c2.82,0,4.24-1.31,4.24-3.93A3.08,3.08,0,0,0,50.87,72a13.37,13.37,0,0,0-4-1.76q-6.16-1.84-6.16-6.46a5.46,5.46,0,0,1,1.85-4.24,7.09,7.09,0,0,1,4.92-1.66A8.44,8.44,0,0,1,52.13,59l.38-1.17h1.36L54.23,64H52.86A6.52,6.52,0,0,0,51,60.41a5,5,0,0,0-3.68-1.56,3.49,3.49,0,0,0-2.72.91,3.42,3.42,0,0,0-.81,2.36,5.41,5.41,0,0,0,.11,1.13,2.17,2.17,0,0,0,.46.89,5,5,0,0,0,.65.65,4.62,4.62,0,0,0,1.07.58c.5.21.94.38,1.3.51s.93.31,1.71.57A11.82,11.82,0,0,1,53.66,69a5.5,5.5,0,0,1,1.56,4.13,5.69,5.69,0,0,1-2.16,4.66,8.33,8.33,0,0,1-5.43,1.75,9.54,9.54,0,0,1-3.14-.55,6.66,6.66,0,0,1-2.24-1.17l-.46,1.3H40.31Z"/><path d="M57.36,59.63v-.91l7.26-.55.32.31V72.86a5.38,5.38,0,0,0,1,3.49,3.2,3.2,0,0,0,2.55,1.25A6.11,6.11,0,0,0,74,74.52V62.46a2.91,2.91,0,0,0-1.17-2.26,6.45,6.45,0,0,0-3-.57v-.91l7.9-.55.33.31V74.8A2.78,2.78,0,0,0,79.25,77a4.35,4.35,0,0,0,2.17.59v.91l-7.06.48L74,78.63V75.88H73.9A21.43,21.43,0,0,1,71.51,78a8.36,8.36,0,0,1-4.84,1.38,5,5,0,0,1-4.4-2,9,9,0,0,1-1.43-5.36V62.59a2.9,2.9,0,0,0-1.19-2.26A4.57,4.57,0,0,0,57.36,59.63Z"/><path d="M83.55,59.52v-.91l7.28-.44.31.26v3.18h.13l.65-.65.71-.7.68-.61a4.44,4.44,0,0,1,.82-.62l.86-.45a3.93,3.93,0,0,1,1.05-.4q.48-.1,1.14-.21a8.74,8.74,0,0,1,1.37-.11,5.94,5.94,0,0,1,3.51,1,6.62,6.62,0,0,1,2.27,2.84c.09-.07.31-.29.68-.65l.74-.71c.13-.12.37-.33.73-.63a7.36,7.36,0,0,1,.85-.63l.9-.49a5.19,5.19,0,0,1,1.07-.43c.32-.08.71-.16,1.16-.23a9,9,0,0,1,1.38-.11,5.15,5.15,0,0,1,4.45,2,8.83,8.83,0,0,1,1.47,5.38V75.37A2,2,0,0,0,119,77.46a6.78,6.78,0,0,0,2.16.49v.9H110.43V78a10.47,10.47,0,0,0,2-.31c.82-.25,1.23-.93,1.23-2V64.67a5.3,5.3,0,0,0-1.06-3.5A3.26,3.26,0,0,0,110,59.89a6.79,6.79,0,0,0-2.16.33,5.22,5.22,0,0,0-1.66.88,10.55,10.55,0,0,0-1,1,5.89,5.89,0,0,0-.65.91V75.37a2,2,0,0,0,1.21,2.09,5.89,5.89,0,0,0,2,.49v.9H97.25V78a8.48,8.48,0,0,0,1.88-.31c.82-.25,1.23-.93,1.23-2V64.67a5.36,5.36,0,0,0-1.06-3.5,3.27,3.27,0,0,0-2.6-1.28,6.52,6.52,0,0,0-2.16.34,5.32,5.32,0,0,0-1.66.89,9.45,9.45,0,0,0-1,1,6.65,6.65,0,0,0-.65.91V75.33a2,2,0,0,0,1.24,2.07,5.48,5.48,0,0,0,2,.55v.9H83.89V78a9.78,9.78,0,0,0,2-.31c.81-.25,1.21-.93,1.21-2v-13a2.87,2.87,0,0,0-1.21-2.23A4.74,4.74,0,0,0,83.55,59.52Z"/><path d="M122.52,88.16a11.83,11.83,0,0,0,2.47-.42c.79-.25,1.19-1,1.19-2.12V62.56A3,3,0,0,0,125,60.29a5.06,5.06,0,0,0-1.15-.51,4.59,4.59,0,0,0-1.32-.26v-.71l7.39-.64.33.26v2.32l.17,0a11,11,0,0,1,2.63-2,6.94,6.94,0,0,1,3.48-.9,8.8,8.8,0,0,1,6.82,3,11.28,11.28,0,0,1,2.75,7.9,10.48,10.48,0,0,1-1.47,5.47,10.34,10.34,0,0,1-3.86,3.8,10.22,10.22,0,0,1-5.1,1.33,8.35,8.35,0,0,1-5.2-1.45h-.18v7.4a2,2,0,0,0,1.26,2.12,10.72,10.72,0,0,0,1.53.43,9.08,9.08,0,0,0,1.6.26v.9H122.52Zm7.76-13.36A6,6,0,0,0,132,77.3a4.76,4.76,0,0,0,3.27,1.11,5,5,0,0,0,4.33-2.57,12.88,12.88,0,0,0,1.69-7.09,14.75,14.75,0,0,0-.36-3.32,10.51,10.51,0,0,0-1.08-2.87,5.57,5.57,0,0,0-2-2.08,5.5,5.5,0,0,0-2.91-.77,6,6,0,0,0-4.7,2.25Z"/><path d="M147.39,60.46V58.52h4.39v-7h4v7h6.13v1.94h-6.09V72.52a5.57,5.57,0,0,0,.76,3.18,3.1,3.1,0,0,0,2.72,1.08,2.66,2.66,0,0,0,1.14-.23,2.63,2.63,0,0,0,.74-.49,2.31,2.31,0,0,0,.45-.86,9.23,9.23,0,0,0,.25-.89c0-.19.09-.54.16-1.06h1a7.55,7.55,0,0,1-1.83,4.3,5.09,5.09,0,0,1-4,1.74q-5.49,0-5.49-6.21V60.46Z"/><path d="M163.82,59.58v-.9l7.68-.51.3.31V75.33A2,2,0,0,0,173,77.4a6.56,6.56,0,0,0,2,.55v.9H164.51V78a9.78,9.78,0,0,0,2-.31c.81-.25,1.21-.92,1.21-2V62.7a2.87,2.87,0,0,0-1.21-2.26,5.46,5.46,0,0,0-1.26-.56A5,5,0,0,0,163.82,59.58Zm2.94-10.25a2.84,2.84,0,0,1,.77-2,2.45,2.45,0,0,1,1.85-.84,2.86,2.86,0,0,1,2,.77,2.5,2.5,0,0,1,.8,1.88,2.94,2.94,0,0,1-.81,2.08,2.68,2.68,0,0,1-2,.87,2.49,2.49,0,0,1-1.85-.81A2.71,2.71,0,0,1,166.76,49.33Z"/><path d="M177.34,68.73a10.73,10.73,0,0,1,3-7.85,10.43,10.43,0,0,1,7.78-3,10.13,10.13,0,0,1,7.63,3,10.45,10.45,0,0,1,2.88,7.57A12.31,12.31,0,0,1,197.36,74a9.77,9.77,0,0,1-3.73,4,11,11,0,0,1-5.87,1.53,10.51,10.51,0,0,1-5.14-1.28,9.87,9.87,0,0,1-3.82-3.77A11.1,11.1,0,0,1,177.34,68.73Zm4.79-.35a20.27,20.27,0,0,0,.34,3.87,13.13,13.13,0,0,0,1,3.21,5.52,5.52,0,0,0,1.85,2.23,4.64,4.64,0,0,0,2.71.81,4.31,4.31,0,0,0,3.26-1.39,8.15,8.15,0,0,0,1.92-3.6,21.7,21.7,0,0,0,.28-8.58,12.88,12.88,0,0,0-.93-3,5.44,5.44,0,0,0-1.79-2.23,4.67,4.67,0,0,0-2.74-.82,4.89,4.89,0,0,0-2.89.86A5.46,5.46,0,0,0,183.31,62a13.47,13.47,0,0,0-.91,3A19.73,19.73,0,0,0,182.13,68.38Z"/><path d="M200.83,59.52v-.91l7.23-.44.31.26v3.14h.09q.1-.12.51-.51c.28-.27.46-.44.54-.53l.54-.5a7.06,7.06,0,0,1,.62-.5l.63-.43a4.53,4.53,0,0,1,.73-.42l.77-.32a5,5,0,0,1,.89-.28c.29-.06.61-.11,1-.15a8.11,8.11,0,0,1,1.12-.07,5.5,5.5,0,0,1,4.56,1.9A8.13,8.13,0,0,1,221.86,65V75.41a2,2,0,0,0,1.2,2,6,6,0,0,0,2,.49v.9H214.37V78a10.35,10.35,0,0,0,2.15-.31,1.84,1.84,0,0,0,1.24-2V64.72a5.31,5.31,0,0,0-1.1-3.53,3.36,3.36,0,0,0-2.65-1.3,6.38,6.38,0,0,0-2.8.61,6.63,6.63,0,0,0-1.91,1.25,5.32,5.32,0,0,0-.93,1.29V75.37a2,2,0,0,0,1.23,2,6.11,6.11,0,0,0,2.12.55v.9H201.07V78a9.78,9.78,0,0,0,2-.31c.81-.25,1.22-.93,1.22-2v-13a3.1,3.1,0,0,0-1.22-2.41A4.49,4.49,0,0,0,200.83,59.52Z"/><path d="M227.49,72.13h.94a7.69,7.69,0,0,0,.79,1.94,13.34,13.34,0,0,0,1.44,2.07,7.51,7.51,0,0,0,2.09,1.68,5.11,5.11,0,0,0,2.5.68q4.23,0,4.23-3.93A3.07,3.07,0,0,0,238.27,72a13.33,13.33,0,0,0-4.06-1.76q-6.15-1.84-6.15-6.46a5.45,5.45,0,0,1,1.84-4.24,7.12,7.12,0,0,1,4.93-1.66,8.46,8.46,0,0,1,4.7,1.13l.37-1.17h1.37l.35,6.22h-1.37a6.51,6.51,0,0,0-1.87-3.63,5,5,0,0,0-3.68-1.56,3.53,3.53,0,0,0-2.73.91,3.46,3.46,0,0,0-.8,2.36,5.41,5.41,0,0,0,.11,1.13,2,2,0,0,0,.45.89,6.62,6.62,0,0,0,.65.65,4.85,4.85,0,0,0,1.07.58c.51.21.94.38,1.3.51s.93.31,1.71.57a11.87,11.87,0,0,1,4.6,2.5,5.49,5.49,0,0,1,1.55,4.13,5.69,5.69,0,0,1-2.16,4.66A8.32,8.32,0,0,1,235,79.49a9.49,9.49,0,0,1-3.14-.55,6.55,6.55,0,0,1-2.24-1.17l-.47,1.3h-1.47Z"/></g></g></g></svg>