<svg xmlns="http://www.w3.org/2000/svg" viewBox="0 0 165.52 79.49"><title>For Great Clothes</title><g id="Layer_2" data-name="Layer 2"><g id="For..."><g id="for_great_clothes" data-name="for greatclothes"><path d="M0,15.26v-1.9H4.61V12q0-6,3.06-9.23A8.7,8.7,0,0,1,14.3,0a4.53,4.53,0,0,1,3.39,1.17A3.87,3.87,0,0,1,18.83,4a2.47,2.47,0,0,1-.64,1.56,2,2,0,0,1-1.66.8,3.12,3.12,0,0,1-1.7-.5,1.72,1.72,0,0,1-.78-1.55,7.66,7.66,0,0,1,.13-1.1,7.88,7.88,0,0,0,.13-1.32A1.07,1.07,0,0,0,13.23,1,3.46,3.46,0,0,0,10,3.24Q8.91,5.49,8.75,10.61c0,.22,0,.67,0,1.34s0,1.15,0,1.41H14.4v1.9H8.71v15a1.93,1.93,0,0,0,1.24,2,9.21,9.21,0,0,0,2.93.55v.9H1.41v-.9a10,10,0,0,0,2-.31c.8-.25,1.21-.93,1.21-2V15.26Z"/><path d="M15.7,23.57a10.73,10.73,0,0,1,3-7.85,10.43,10.43,0,0,1,7.78-3,10.11,10.11,0,0,1,7.63,3A10.45,10.45,0,0,1,37,23.26a12.18,12.18,0,0,1-1.24,5.53,9.77,9.77,0,0,1-3.73,4,11,11,0,0,1-5.87,1.53A10.51,10.51,0,0,1,21,33.05a9.87,9.87,0,0,1-3.82-3.77A11.1,11.1,0,0,1,15.7,23.57Zm4.79-.35a20.27,20.27,0,0,0,.34,3.87,13.35,13.35,0,0,0,1,3.2,5.56,5.56,0,0,0,1.85,2.24,4.64,4.64,0,0,0,2.71.81A4.35,4.35,0,0,0,29.68,32a8.3,8.3,0,0,0,1.91-3.6,19.72,19.72,0,0,0,.58-5,20.62,20.62,0,0,0-.29-3.54,12.89,12.89,0,0,0-.94-3,5.37,5.37,0,0,0-1.79-2.23,4.67,4.67,0,0,0-2.74-.82,4.89,4.89,0,0,0-2.89.86,5.46,5.46,0,0,0-1.85,2.31,14,14,0,0,0-.91,3A19.73,19.73,0,0,0,20.49,23.22Z"/><path d="M39.19,14.35v-.9L46.42,13l.31.26v3.14h.09a10.16,10.16,0,0,1,3-2.71,6.24,6.24,0,0,1,3.1-.91,2.75,2.75,0,0,1,1.93.83,2.55,2.55,0,0,1,.88,1.93,3.22,3.22,0,0,1-.63,2,2.11,2.11,0,0,1-1.75.8c-1.6,0-2.4-.73-2.4-2.18a2.21,2.21,0,0,1,.15-.64,2.25,2.25,0,0,0,.16-.75,4.3,4.3,0,0,0-2.74,1,7,7,0,0,0-1.78,2V30.21a1.94,1.94,0,0,0,1.23,2,9.22,9.22,0,0,0,2.94.55v.9H39.43v-.9a9.78,9.78,0,0,0,2-.31c.81-.25,1.22-.93,1.22-2v-13a3.1,3.1,0,0,0-1.22-2.41A4.61,4.61,0,0,0,39.19,14.35Z"/><path d="M67.35,38.36A4,4,0,0,1,69.15,35a9,9,0,0,1,5.17-1.43v-.3c-.47-.14-.87-.26-1.19-.37a9,9,0,0,1-1.22-.53,5.69,5.69,0,0,1-1.19-.76,3.33,3.33,0,0,1-.8-1,2.82,2.82,0,0,1-.35-1.37,2.74,2.74,0,0,1,.32-1.32,3.09,3.09,0,0,1,1-1.05,12.51,12.51,0,0,1,1.13-.66c.26-.12.69-.3,1.28-.54l.26-.11v-.25A9.46,9.46,0,0,1,70,22.81a5.27,5.27,0,0,1-1.3-3.51,5.82,5.82,0,0,1,2.27-4.8,8.88,8.88,0,0,1,5.68-1.8,12.49,12.49,0,0,1,2.75.32,20.12,20.12,0,0,1,2.3.65,5.35,5.35,0,0,0,1.08.33,9.28,9.28,0,0,1,2.2-1,8.53,8.53,0,0,1,2.35-.27,2.5,2.5,0,0,1,1.66.62,1.91,1.91,0,0,1,.72,1.48,2.32,2.32,0,0,1-.57,1.64,2,2,0,0,1-1.57.63A1.64,1.64,0,0,1,86,16.35a4.49,4.49,0,0,1-.44-2.24,5.85,5.85,0,0,0-1.64.18,3.63,3.63,0,0,0-1.15.6v.31A6.46,6.46,0,0,1,84,17.27a6.33,6.33,0,0,1,.46,2.26,5.62,5.62,0,0,1-2.32,4.6,8.36,8.36,0,0,1-5.26,1.8h-2.6c-1,.52-1.57,1.18-1.57,2A2,2,0,0,0,73,29.08a1.9,1.9,0,0,0,1.11.67,7.21,7.21,0,0,0,1.28.26c.32,0,.86.06,1.63.09l.49,0c.51,0,1.44.06,2.78.14s2.08.13,2.23.13a6.11,6.11,0,0,1,4,1.79,5.72,5.72,0,0,1,1.79,4.34,6.3,6.3,0,0,1-2.87,5.34q-2.86,2-8.41,2c-3.41,0-5.87-.47-7.4-1.42A4.55,4.55,0,0,1,67.35,38.36Zm4.1.26A3.55,3.55,0,0,0,73,41.43a7.68,7.68,0,0,0,4.8,1.24,8.47,8.47,0,0,0,5.11-1.34,4.56,4.56,0,0,0,1.8-3.91,4.83,4.83,0,0,0-.12-1.15,2.66,2.66,0,0,0-.66-1.09,3.27,3.27,0,0,0-1.52-.89,56,56,0,0,0-7-.33,5.64,5.64,0,0,0-3.1,1.53A4.59,4.59,0,0,0,71.45,38.62Zm1.3-19.36a7.4,7.4,0,0,0,1,4.06,3.23,3.23,0,0,0,5.59,0,7.44,7.44,0,0,0,1-3.95,8,8,0,0,0-1-4.07,3.18,3.18,0,0,0-3-1.63Q72.76,13.69,72.75,19.26Z"/><path d="M90.72,14.35v-.9L98,13l.3.26v3.14h.09a10.29,10.29,0,0,1,3-2.71,6.27,6.27,0,0,1,3.1-.91,2.76,2.76,0,0,1,1.94.83,2.55,2.55,0,0,1,.88,1.93,3.22,3.22,0,0,1-.63,2,2.12,2.12,0,0,1-1.75.8c-1.6,0-2.4-.73-2.4-2.18a2.21,2.21,0,0,1,.15-.64,2.47,2.47,0,0,0,.15-.75,4.29,4.29,0,0,0-2.73,1,7,7,0,0,0-1.79,2V30.21a1.94,1.94,0,0,0,1.24,2,9.09,9.09,0,0,0,2.93.55v.9H91v-.9a9.77,9.77,0,0,0,2-.31c.81-.25,1.21-.93,1.21-2v-13A3.07,3.07,0,0,0,93,15.08,4.61,4.61,0,0,0,90.72,14.35Z"/><path d="M108.83,23.31a11.71,11.71,0,0,1,.67-3.95A11.29,11.29,0,0,1,111.39,16a8.83,8.83,0,0,1,3.1-2.39,9.58,9.58,0,0,1,4.14-.89,9.46,9.46,0,0,1,3.79.7A6.21,6.21,0,0,1,125,15.31a8.7,8.7,0,0,1,1.37,2.74,11.59,11.59,0,0,1,.45,3.32v.39H113.61v.51a19.64,19.64,0,0,0,.38,4,10.48,10.48,0,0,0,1.16,3.13,5.52,5.52,0,0,0,2.1,2.08,6.2,6.2,0,0,0,3.07.73,9.45,9.45,0,0,0,2.14-.22,4.31,4.31,0,0,0,1.58-.77A6.8,6.8,0,0,0,125.23,30a20.58,20.58,0,0,0,1.2-1.82l.81.56a10.34,10.34,0,0,1-3.34,4,8.18,8.18,0,0,1-4.79,1.48,11.31,11.31,0,0,1-4.56-.86A8.26,8.26,0,0,1,111.32,31a10.48,10.48,0,0,1-1.87-3.47A14,14,0,0,1,108.83,23.31Zm4.78-2.54,9.07-.09q0-7-4.1-7a4.13,4.13,0,0,0-3.5,1.94A9.17,9.17,0,0,0,113.61,20.77Z"/><path d="M129.67,29.44a7.13,7.13,0,0,1,.34-2.32,4.2,4.2,0,0,1,1-1.65,6.87,6.87,0,0,1,1.35-1,11.22,11.22,0,0,1,1.62-.77c.31-.12,1.45-.51,3.42-1.18a27.54,27.54,0,0,0,4-1.61V18.31a7.57,7.57,0,0,0,0-.81,7.2,7.2,0,0,0-.25-1.15,4.55,4.55,0,0,0-.56-1.28,2.88,2.88,0,0,0-1.09-1,3.41,3.41,0,0,0-1.73-.42,2.28,2.28,0,0,0-.45,0l-.41.07a1.7,1.7,0,0,0-.35.14l-.29.14a1.23,1.23,0,0,0-.27.19l-.24.19-.21.21-.17.19-.17.19-.17.16a5.51,5.51,0,0,0,.27,1.23,5.45,5.45,0,0,1,.27,1.44,1.69,1.69,0,0,1-.81,1.35,3.5,3.5,0,0,1-2.12.59,1.56,1.56,0,0,1-1.4-.67,2.85,2.85,0,0,1-.46-1.66,3.44,3.44,0,0,1,1.1-2.43,7.29,7.29,0,0,1,2.77-1.74A9.71,9.71,0,0,1,138,12.7c.68,0,1.28,0,1.79.06a11.65,11.65,0,0,1,1.59.22,5.34,5.34,0,0,1,1.4.47,5.39,5.39,0,0,1,1.12.8,3.73,3.73,0,0,1,.89,1.21,7.62,7.62,0,0,1,.52,1.72,12,12,0,0,1,.19,2.27c0,1.52,0,3.5-.11,5.95s-.11,3.81-.11,4.1a2.61,2.61,0,0,0,.57,1.5,1.81,1.81,0,0,0,1.56.8,1.62,1.62,0,0,0,.64-.12,1,1,0,0,0,.47-.41,4.94,4.94,0,0,0,.29-.55A4.46,4.46,0,0,0,149,30c.05-.33.09-.59.11-.79s0-.48.08-.87h1a7.5,7.5,0,0,1-1.41,4.44,4.27,4.27,0,0,1-3.4,1.38,3.87,3.87,0,0,1-2.46-.71,4.83,4.83,0,0,1-1.46-2.31h-.15a8.66,8.66,0,0,1-2.88,2.31,8,8,0,0,1-3.59.82,5.37,5.37,0,0,1-3.77-1.32A4.52,4.52,0,0,1,129.67,29.44Zm4.1-.66q0,3.62,3.38,3.61a4.13,4.13,0,0,0,2.35-.58A8.14,8.14,0,0,0,141.29,30l.2-7.9c-.74.22-1.36.42-1.87.6s-1.06.39-1.64.63a8.75,8.75,0,0,0-2.59,1.58,4.29,4.29,0,0,0-.89,1,5.29,5.29,0,0,0-.53,1.28A5.56,5.56,0,0,0,133.77,28.78Z"/><path d="M149.93,15.3V13.36h4.39v-7h4v7h6.13V15.3h-6.09V27.36a5.57,5.57,0,0,0,.76,3.18,3.09,3.09,0,0,0,2.71,1.08,2.71,2.71,0,0,0,1.15-.23,2.79,2.79,0,0,0,.73-.49,2.05,2.05,0,0,0,.45-.86c.13-.4.22-.7.26-.89s.09-.54.16-1.06h1a7.55,7.55,0,0,1-1.83,4.3,5.09,5.09,0,0,1-4,1.74q-5.49,0-5.49-6.21V15.3Z"/><path d="M30.65,68.51a11.17,11.17,0,0,1,.73-4,11,11,0,0,1,2-3.39,9.37,9.37,0,0,1,3.25-2.36,10.26,10.26,0,0,1,4.26-.89,7.52,7.52,0,0,1,5,1.51,4.7,4.7,0,0,1,1.79,3.72,2.66,2.66,0,0,1-.61,1.85,2.2,2.2,0,0,1-1.75.68,3.06,3.06,0,0,1-1.72-.54,2,2,0,0,1-.82-1.74,3.76,3.76,0,0,1,.4-1.81,2.61,2.61,0,0,0,.4-1,1.67,1.67,0,0,0-.81-1.3,4,4,0,0,0-1.9-.36,4.2,4.2,0,0,0-2,.5,5.35,5.35,0,0,0-1.72,1.54,8.17,8.17,0,0,0-1.27,2.9,18,18,0,0,0-.47,4.32,12,12,0,0,0,1.7,6.68,5.26,5.26,0,0,0,4.61,2.61,6.66,6.66,0,0,0,3.77-1,9,9,0,0,0,2.65-3L49,74a11.4,11.4,0,0,1-3.55,3.88,8.4,8.4,0,0,1-4.81,1.51q-4.85,0-7.43-3A11.66,11.66,0,0,1,30.65,68.51Z"/><path d="M48.78,46.53v-.91L57,45.16l.31.3V75.32a2.05,2.05,0,0,0,1.21,2.08,5.61,5.61,0,0,0,2,.55v.9H50V78a9.78,9.78,0,0,0,2-.31,1.84,1.84,0,0,0,1.24-2V50a3.25,3.25,0,0,0-1.24-2.56,6.1,6.1,0,0,0-1.47-.56A9,9,0,0,0,48.78,46.53Z"/><path d="M62.89,68.73a10.73,10.73,0,0,1,3-7.85,10.45,10.45,0,0,1,7.78-3,10.11,10.11,0,0,1,7.63,3,10.45,10.45,0,0,1,2.88,7.57A12.18,12.18,0,0,1,82.91,74a9.7,9.7,0,0,1-3.73,4,11,11,0,0,1-5.87,1.53,10.51,10.51,0,0,1-5.14-1.28,9.78,9.78,0,0,1-3.81-3.77A11,11,0,0,1,62.89,68.73Zm4.79-.35A20.27,20.27,0,0,0,68,72.25a13.58,13.58,0,0,0,1,3.21,5.6,5.6,0,0,0,1.85,2.23,4.64,4.64,0,0,0,2.71.81,4.35,4.35,0,0,0,3.27-1.39,8.24,8.24,0,0,0,1.91-3.6,21.49,21.49,0,0,0,.29-8.58,12.89,12.89,0,0,0-.94-3,5.37,5.37,0,0,0-1.79-2.23,4.65,4.65,0,0,0-2.74-.82,4.84,4.84,0,0,0-2.88.86A5.31,5.31,0,0,0,68.87,62,13.49,13.49,0,0,0,68,65,19.73,19.73,0,0,0,67.68,68.38Z"/><path d="M85.17,60.46V58.52h4.38v-7h4v7h6.13v1.94H93.57V72.52a5.49,5.49,0,0,0,.76,3.18A3.08,3.08,0,0,0,97,76.78a2.66,2.66,0,0,0,1.14-.23,2.63,2.63,0,0,0,.74-.49,2.05,2.05,0,0,0,.45-.86,9.23,9.23,0,0,0,.25-.89c0-.19.09-.54.17-1.06h1a7.56,7.56,0,0,1-1.84,4.3,5.08,5.08,0,0,1-4,1.74c-3.66,0-5.48-2.07-5.48-6.21V60.46Z"/><path d="M100.78,46.53v-.91l8-.46.31.3V61.57h.08a25.9,25.9,0,0,1,2.36-2.12,8.36,8.36,0,0,1,5-1.59,5.38,5.38,0,0,1,4.51,1.89A8.18,8.18,0,0,1,122.63,65V75.41a2,2,0,0,0,1.21,2,5.89,5.89,0,0,0,2,.49v.9H115.13V78a10,10,0,0,0,2.17-.31c.82-.25,1.23-.93,1.23-2V64.72a5.31,5.31,0,0,0-1.1-3.53,3.36,3.36,0,0,0-2.65-1.3,6.38,6.38,0,0,0-2.8.61,6.63,6.63,0,0,0-1.91,1.25,5.06,5.06,0,0,0-.93,1.29V75.37a2,2,0,0,0,1.21,2,5.61,5.61,0,0,0,2.12.55v.9H101.82V78a9.78,9.78,0,0,0,2-.31,1.85,1.85,0,0,0,1.24-2V49.86a4.82,4.82,0,0,0-.4-1.52,2.59,2.59,0,0,0-.84-1.11,4.47,4.47,0,0,0-1.36-.45A11.8,11.8,0,0,0,100.78,46.53Z"/><path d="M128.23,68.47a11.72,11.72,0,0,1,.68-4,10.87,10.87,0,0,1,1.89-3.38,8.74,8.74,0,0,1,3.1-2.39,9.57,9.57,0,0,1,4.13-.89,9.43,9.43,0,0,1,3.79.7,6.08,6.08,0,0,1,2.54,1.91,8.52,8.52,0,0,1,1.38,2.74,12,12,0,0,1,.44,3.32v.39H133v.51a19.68,19.68,0,0,0,.37,4,10.49,10.49,0,0,0,1.17,3.13,5.52,5.52,0,0,0,2.1,2.08,6.14,6.14,0,0,0,3.07.73,9.3,9.3,0,0,0,2.13-.22,4.36,4.36,0,0,0,1.59-.77,6.8,6.8,0,0,0,1.19-1.21,18.77,18.77,0,0,0,1.19-1.82l.82.56a10.37,10.37,0,0,1-3.35,4,8.15,8.15,0,0,1-4.78,1.48,11.24,11.24,0,0,1-4.56-.86,8.3,8.3,0,0,1-3.24-2.38,10.64,10.64,0,0,1-1.86-3.47A13.67,13.67,0,0,1,128.23,68.47ZM133,65.93l9.06-.09q0-7-4.09-7a4.16,4.16,0,0,0-3.51,1.94A9.17,9.17,0,0,0,133,65.93Z"/><path d="M148.85,72.13h1a7.28,7.28,0,0,0,.78,1.94A12.76,12.76,0,0,0,152,76.14a7.32,7.32,0,0,0,2.08,1.68,5.14,5.14,0,0,0,2.5.68q4.24,0,4.24-3.93A3.08,3.08,0,0,0,159.63,72a13.25,13.25,0,0,0-4-1.76q-6.15-1.84-6.16-6.46a5.46,5.46,0,0,1,1.85-4.24,7.09,7.09,0,0,1,4.92-1.66,8.44,8.44,0,0,1,4.7,1.13l.38-1.17h1.37L163,64h-1.37a6.52,6.52,0,0,0-1.88-3.63,5,5,0,0,0-3.68-1.56,3.51,3.51,0,0,0-2.72.91,3.42,3.42,0,0,0-.81,2.36,5.41,5.41,0,0,0,.11,1.13,2.17,2.17,0,0,0,.46.89,5,5,0,0,0,.65.65,4.62,4.62,0,0,0,1.07.58c.5.21.94.38,1.3.51s.93.31,1.71.57a11.75,11.75,0,0,1,4.59,2.5A5.5,5.5,0,0,1,164,73.08a5.69,5.69,0,0,1-2.16,4.66,8.33,8.33,0,0,1-5.43,1.75,9.54,9.54,0,0,1-3.14-.55A6.66,6.66,0,0,1,151,77.77l-.46,1.3h-1.48Z"/></g></g></g></svg>