<svg xmlns="http://www.w3.org/2000/svg" viewBox="0 0 231 103.5"><defs><style>.cls-1{fill:#fff;}</style></defs><title>Asset 3</title><g id="Layer_2" data-name="Layer 2"><g id="Making_Space" data-name="Making Space"><g id="Rectangle_3" data-name="Rectangle 3"><rect width="231" height="103.5"/></g><g id="Making_Space-2" data-name="MakingSpace"><path class="cls-1" d="M7.19,40.66v-1a9.79,9.79,0,0,0,4.19-1.12q1.5-1.08,1.5-6.24V15.78a4.49,4.49,0,0,0-1.41-3.7,5.38,5.38,0,0,0-1.89-.92,9.64,9.64,0,0,0-2.17-.36v-1H17.58l10.47,23L36.5,13.64a12.4,12.4,0,0,0,1-3.83H47.74v1c-.42,0-1,.1-1.68.22a11.88,11.88,0,0,0-1.64.37,2,2,0,0,0-1.37,2.21V36.77A2.3,2.3,0,0,0,44.43,39,7.4,7.4,0,0,0,46,39.4a16.23,16.23,0,0,0,1.82.26v1H32.92v-1c.59,0,1.31-.1,2.18-.22a6.79,6.79,0,0,0,1.72-.37,2.48,2.48,0,0,0,1.44-2.3V13.64L26.55,40.15h-.84a56.3,56.3,0,0,0-2.4-6.26L14.56,14.28v17.8c0,3.28.5,5.33,1.52,6.17a6.43,6.43,0,0,0,2.21.91,14.4,14.4,0,0,0,2.44.5v1Z"/><path class="cls-1" d="M50.5,36.4a7,7,0,0,1,.35-2.31,4.16,4.16,0,0,1,1-1.66,6.83,6.83,0,0,1,1.34-1.05,12,12,0,0,1,1.63-.77c.3-.12,1.44-.51,3.42-1.18a27.36,27.36,0,0,0,4-1.61V25.28a7.67,7.67,0,0,0-.05-.82A6.41,6.41,0,0,0,62,23.31,4.28,4.28,0,0,0,61.42,22a2.85,2.85,0,0,0-1.08-1,3.79,3.79,0,0,0-2.19-.38l-.4.08a1.74,1.74,0,0,0-.36.13L57.1,21a2,2,0,0,0-.27.19l-.23.2a1.9,1.9,0,0,0-.22.21l-.16.18A2.23,2.23,0,0,1,56,22c-.09.1-.15.15-.17.17a5.58,5.58,0,0,0,.27,1.22,5.44,5.44,0,0,1,.27,1.45,1.67,1.67,0,0,1-.81,1.34,3.45,3.45,0,0,1-2.11.6,1.58,1.58,0,0,1-1.41-.68,2.9,2.9,0,0,1-.45-1.66A3.43,3.43,0,0,1,52.72,22a7.44,7.44,0,0,1,2.77-1.74,9.76,9.76,0,0,1,3.39-.62c.68,0,1.28,0,1.79.06a13,13,0,0,1,1.58.22,5.22,5.22,0,0,1,1.4.47,5.72,5.72,0,0,1,1.13.8,3.74,3.74,0,0,1,.88,1.22,6.92,6.92,0,0,1,.52,1.71,12,12,0,0,1,.2,2.28c0,1.51,0,3.5-.11,5.94s-.11,3.81-.11,4.11a2.59,2.59,0,0,0,.56,1.5,1.84,1.84,0,0,0,1.56.79,1.67,1.67,0,0,0,.65-.12,1,1,0,0,0,.46-.41,3.26,3.26,0,0,0,.29-.55,3.11,3.11,0,0,0,.19-.75c0-.32.09-.59.11-.78s0-.49.08-.87h1a7.49,7.49,0,0,1-1.4,4.43,4.29,4.29,0,0,1-3.4,1.39,3.88,3.88,0,0,1-2.47-.72,4.84,4.84,0,0,1-1.46-2.3h-.15a8.75,8.75,0,0,1-2.88,2.3,8,8,0,0,1-3.59.83,5.3,5.3,0,0,1-3.76-1.33A4.5,4.5,0,0,1,50.5,36.4Zm4.1-.66q0,3.61,3.39,3.61a4.09,4.09,0,0,0,2.34-.58A8.14,8.14,0,0,0,62.12,37l.2-7.89c-.74.22-1.36.42-1.87.59s-1.05.39-1.64.63a9.56,9.56,0,0,0-1.44.73,8,8,0,0,0-1.14.85,4.13,4.13,0,0,0-.9,1,5.46,5.46,0,0,0-.53,1.28A6,6,0,0,0,54.6,35.74Z"/><path class="cls-1" d="M71,8.33v-.9L79,7l.3.3V30.49q4.22-3.93,7.19-7.12a1.59,1.59,0,0,0,.58-1c0-.62-.94-1-2.81-1.24v-.9h9.09v.86a18.3,18.3,0,0,0-3.23,1.23,10.59,10.59,0,0,0-2.33,1.48c-1.41,1.2-2.75,2.44-4,3.7a12.37,12.37,0,0,1,1.59.91,16.18,16.18,0,0,1,1.32,1,9.34,9.34,0,0,1,1.17,1.23c.4.5.72.93,1,1.27s.55.83.91,1.46.63,1.11.81,1.45l.82,1.62q.54,1.11.81,1.59a2.85,2.85,0,0,0,1.66,1.37,4.89,4.89,0,0,0,1.76.4v.86H88.47a23.79,23.79,0,0,0-1.17-3,29.59,29.59,0,0,0-1.71-3.18,11.33,11.33,0,0,0-2.11-2.59,3.42,3.42,0,0,0-2.2-1,2.83,2.83,0,0,0-1.94.66v5.69a1.93,1.93,0,0,0,1.22,2,7.14,7.14,0,0,0,2.11.55v.91H72v-.91a10,10,0,0,0,2-.31c.82-.25,1.23-.92,1.23-2V11.7A3.31,3.31,0,0,0,74,9.08a3.78,3.78,0,0,0-1.37-.51A11.72,11.72,0,0,0,71,8.33Z"/><path class="cls-1" d="M96,21.38v-.9l7.67-.51.31.31V37.13a2,2,0,0,0,1.24,2.07,6.49,6.49,0,0,0,2,.55v.91H96.63v-.91a9.32,9.32,0,0,0,2-.31c.8-.24,1.21-.92,1.21-2V24.5a2.9,2.9,0,0,0-1.21-2.26,5.88,5.88,0,0,0-1.26-.56A5.42,5.42,0,0,0,96,21.38Zm2.93-10.25a2.85,2.85,0,0,1,.78-2,2.42,2.42,0,0,1,1.85-.83,2.78,2.78,0,0,1,2,.77,2.48,2.48,0,0,1,.81,1.87,3,3,0,0,1-.82,2.09,2.66,2.66,0,0,1-2,.87,2.48,2.48,0,0,1-1.85-.82A2.7,2.7,0,0,1,98.88,11.13Z"/><path class="cls-1" d="M109.29,21.32v-.91l7.23-.44.31.26v3.14h.09c.07-.08.25-.24.52-.51l.54-.53.54-.49a5.06,5.06,0,0,1,.62-.51l.62-.43a5,5,0,0,1,.73-.42l.77-.32a4.87,4.87,0,0,1,.9-.28c.28-.05.61-.11,1-.15a10,10,0,0,1,1.11-.07,5.53,5.53,0,0,1,4.56,1.9,8.1,8.1,0,0,1,1.53,5.23V37.22a2,2,0,0,0,1.19,2.05,6.27,6.27,0,0,0,2,.48v.91H122.83v-.91a10.35,10.35,0,0,0,2.16-.31c.82-.25,1.23-.92,1.23-2V26.52a5.27,5.27,0,0,0-1.1-3.53,3.37,3.37,0,0,0-2.64-1.3,7,7,0,0,0-4.71,1.87,5,5,0,0,0-.94,1.29V37.17a2,2,0,0,0,1.24,2,6.06,6.06,0,0,0,2.11.55v.91H109.53v-.91a10,10,0,0,0,2-.31c.81-.25,1.21-.92,1.21-2v-13A3.1,3.1,0,0,0,111.52,22,4.53,4.53,0,0,0,109.29,21.32Z"/><path class="cls-1" d="M135.31,45.32a4,4,0,0,1,1.8-3.33,9,9,0,0,1,5.17-1.42v-.31c-.47-.13-.86-.25-1.19-.36a12.57,12.57,0,0,1-1.21-.53,5.57,5.57,0,0,1-1.19-.77,3.51,3.51,0,0,1-.81-1,2.78,2.78,0,0,1-.34-1.37,2.63,2.63,0,0,1,.32-1.32,2.92,2.92,0,0,1,1-1,12.65,12.65,0,0,1,1.12-.66l1.28-.54.27-.1v-.26a9.36,9.36,0,0,1-3.66-2.51,5.25,5.25,0,0,1-1.31-3.5,5.81,5.81,0,0,1,2.28-4.81,8.83,8.83,0,0,1,5.67-1.8,12.42,12.42,0,0,1,2.75.32,19.54,19.54,0,0,1,2.3.65,5.54,5.54,0,0,0,1.09.33,9.65,9.65,0,0,1,2.19-1,8.6,8.6,0,0,1,2.36-.27,2.47,2.47,0,0,1,1.65.62,1.92,1.92,0,0,1,.73,1.48,2.33,2.33,0,0,1-.58,1.65,2,2,0,0,1-1.56.62,1.63,1.63,0,0,1-1.52-.72,4.36,4.36,0,0,1-.44-2.24,5.88,5.88,0,0,0-1.65.18,3.48,3.48,0,0,0-1.14.6v.31a7,7,0,0,1,1.68,4.33,5.58,5.58,0,0,1-2.32,4.6,8.35,8.35,0,0,1-5.25,1.8h-2.61c-1.05.52-1.57,1.18-1.57,2a2,2,0,0,0,.33,1.2,2,2,0,0,0,1.12.67,7.74,7.74,0,0,0,1.27.25c.32,0,.87.06,1.64.09.22,0,.38,0,.48,0l2.79.15,2.22.12a6.12,6.12,0,0,1,4,1.8,5.67,5.67,0,0,1,1.78,4.33,6.27,6.27,0,0,1-2.86,5.34c-1.91,1.36-4.72,2-8.42,2-3.4,0-5.87-.48-7.4-1.42A4.6,4.6,0,0,1,135.31,45.32Zm4.1.26A3.53,3.53,0,0,0,141,48.39a7.64,7.64,0,0,0,4.8,1.24,8.44,8.44,0,0,0,5.1-1.33,4.56,4.56,0,0,0,1.81-3.92,4.89,4.89,0,0,0-.12-1.15,2.58,2.58,0,0,0-.66-1.08,3.28,3.28,0,0,0-1.53-.9,55.85,55.85,0,0,0-6.95-.33,5.67,5.67,0,0,0-3.1,1.53A4.66,4.66,0,0,0,139.41,45.58Zm1.3-19.36a7.4,7.4,0,0,0,1,4.06,3.24,3.24,0,0,0,5.6,0,7.44,7.44,0,0,0,1-3.95,8,8,0,0,0-.95-4.07,3.17,3.17,0,0,0-2.94-1.62Q140.71,20.66,140.71,26.22Z"/><path class="cls-1" d="M8.36,75.67h1A26.25,26.25,0,0,0,11,79.18a18,18,0,0,0,2.09,2.92A8.52,8.52,0,0,0,16,84.24a8.88,8.88,0,0,0,3.7.76,5.63,5.63,0,0,0,4.32-1.51,5.85,5.85,0,0,0,1.41-4.17,5.67,5.67,0,0,0-1.17-3.55,7.32,7.32,0,0,0-3.24-2.34c-3.14-1.26-5.3-2.15-6.46-2.66a9.29,9.29,0,0,1-4-3.14,8.42,8.42,0,0,1-1.34-4.89,7.79,7.79,0,0,1,2.59-6,9.18,9.18,0,0,1,6.45-2.39,10,10,0,0,1,3.47.67,11.66,11.66,0,0,1,3,1.64l1.58-2.17H28l.23,10.25h-1c-.41-1.15-.8-2.12-1.16-2.9a15.56,15.56,0,0,0-1.38-2.42,8,8,0,0,0-1.83-2,8.1,8.1,0,0,0-2.41-1.2,10,10,0,0,0-3.21-.48,3.82,3.82,0,0,0-.94.14,4.06,4.06,0,0,0-1.13.47,4.61,4.61,0,0,0-1.09.84,3.92,3.92,0,0,0-.82,1.31,5,5,0,0,0-.32,1.82,5.24,5.24,0,0,0,1,3.27,9,9,0,0,0,3,2.39,27.76,27.76,0,0,0,3.27,1.43c1.36.51,2.33.9,2.91,1.18A24.06,24.06,0,0,1,25.79,70a10.14,10.14,0,0,1,2,1.63,5.75,5.75,0,0,1,1.35,2.27,9.72,9.72,0,0,1,.43,3,8.7,8.7,0,0,1-2.95,6.77,10.65,10.65,0,0,1-7.41,2.65A11.32,11.32,0,0,1,11.8,84.1l-1.59,2.16H8.67Z"/><path class="cls-1" d="M31.71,95.12a11.11,11.11,0,0,0,2.47-.42c.8-.25,1.19-1,1.19-2.11V69.52a3,3,0,0,0-1.19-2.27A5.16,5.16,0,0,0,33,66.74a4.72,4.72,0,0,0-1.33-.26v-.71l7.39-.64.33.27v2.31l.18,0a10.63,10.63,0,0,1,2.62-2,6.85,6.85,0,0,1,3.48-.91,8.85,8.85,0,0,1,6.83,3,11.35,11.35,0,0,1,2.75,7.9,10.46,10.46,0,0,1-1.48,5.47,10.35,10.35,0,0,1-9,5.14,8.37,8.37,0,0,1-5.2-1.46h-.18v7.4a2,2,0,0,0,1.26,2.13,14.28,14.28,0,0,0,1.53.43,9,9,0,0,0,1.6.25V96H31.71Zm7.76-13.35a6,6,0,0,0,1.75,2.49,4.73,4.73,0,0,0,3.26,1.12,5,5,0,0,0,4.33-2.58,12.76,12.76,0,0,0,1.69-7.08,15.3,15.3,0,0,0-.35-3.32,11.14,11.14,0,0,0-1.08-2.88,5.57,5.57,0,0,0-2-2.07,5.41,5.41,0,0,0-2.91-.77,6,6,0,0,0-4.7,2.24Z"/><path class="cls-1" d="M58.26,81.56a7,7,0,0,1,.35-2.31,4.16,4.16,0,0,1,1-1.66,7.13,7.13,0,0,1,1.34-1,12.57,12.57,0,0,1,1.63-.77c.31-.12,1.44-.51,3.42-1.18A27.36,27.36,0,0,0,70,73V70.44c0-.27,0-.54,0-.82a7.44,7.44,0,0,0-.25-1.15,4.85,4.85,0,0,0-.56-1.28,3,3,0,0,0-1.09-1,3.43,3.43,0,0,0-1.73-.41l-.46,0-.4.08a1.48,1.48,0,0,0-.35.13l-.29.14a1.23,1.23,0,0,0-.27.19l-.24.2a2,2,0,0,0-.21.21L64,67a1.25,1.25,0,0,1-.18.19l-.16.17a5.35,5.35,0,0,0,.26,1.22A5.44,5.44,0,0,1,64.17,70a1.67,1.67,0,0,1-.81,1.34,3.45,3.45,0,0,1-2.11.6,1.6,1.6,0,0,1-1.41-.68,2.9,2.9,0,0,1-.45-1.66,3.4,3.4,0,0,1,1.1-2.43,7.32,7.32,0,0,1,2.76-1.74,9.8,9.8,0,0,1,3.39-.62c.68,0,1.28,0,1.79.06A13.45,13.45,0,0,1,70,65.1a5.26,5.26,0,0,1,1.39.47,5.45,5.45,0,0,1,1.13.8,3.77,3.77,0,0,1,.89,1.22A7.37,7.37,0,0,1,74,69.3a12.07,12.07,0,0,1,.19,2.28c0,1.51,0,3.5-.11,5.94s-.11,3.81-.11,4.11a2.67,2.67,0,0,0,.56,1.5,1.84,1.84,0,0,0,1.57.79,1.66,1.66,0,0,0,.64-.12,1,1,0,0,0,.47-.41,4.08,4.08,0,0,0,.28-.55,3.11,3.11,0,0,0,.19-.75c.05-.32.09-.59.11-.78s.05-.49.08-.87h1a7.49,7.49,0,0,1-1.4,4.43A4.29,4.29,0,0,1,74,86.26a3.9,3.9,0,0,1-2.47-.72,4.92,4.92,0,0,1-1.46-2.3h-.15a8.75,8.75,0,0,1-2.88,2.3,8,8,0,0,1-3.58.83A5.33,5.33,0,0,1,59.7,85,4.5,4.5,0,0,1,58.26,81.56Zm4.1-.66q0,3.61,3.39,3.62a4.09,4.09,0,0,0,2.34-.59,7.73,7.73,0,0,0,1.79-1.82l.2-7.89c-.74.22-1.36.42-1.87.59s-1,.39-1.63.63a9.72,9.72,0,0,0-1.45.73A9.35,9.35,0,0,0,64,77a4.34,4.34,0,0,0-.9,1,5.6,5.6,0,0,0-.73,2.84Z"/><path class="cls-1" d="M80.2,75.48a11.46,11.46,0,0,1,2.73-7.41,9.5,9.5,0,0,1,3.25-2.36,10.26,10.26,0,0,1,4.26-.89,7.58,7.58,0,0,1,5,1.51,4.7,4.7,0,0,1,1.79,3.72,2.65,2.65,0,0,1-.61,1.85,2.2,2.2,0,0,1-1.75.69A3.08,3.08,0,0,1,93.17,72a2,2,0,0,1-.82-1.73,3.73,3.73,0,0,1,.4-1.81,2.53,2.53,0,0,0,.4-1,1.68,1.68,0,0,0-.8-1.3,4.76,4.76,0,0,0-3.9.14,5.47,5.47,0,0,0-1.72,1.54,8.23,8.23,0,0,0-1.27,2.91A17.91,17.91,0,0,0,85,75.08a12.06,12.06,0,0,0,1.7,6.68,5.28,5.28,0,0,0,4.61,2.6,6.66,6.66,0,0,0,3.77-1,9,9,0,0,0,2.65-3.06l.86.64A11.3,11.3,0,0,1,95,84.85a8.41,8.41,0,0,1-4.81,1.52q-4.84,0-7.43-3A11.68,11.68,0,0,1,80.2,75.48Z"/><path class="cls-1" d="M99.87,75.43a11.72,11.72,0,0,1,.68-4,11.29,11.29,0,0,1,1.89-3.38,8.72,8.72,0,0,1,3.1-2.38,9.43,9.43,0,0,1,4.13-.9,9.6,9.6,0,0,1,3.79.7A6,6,0,0,1,116,67.44a8.37,8.37,0,0,1,1.38,2.73,12,12,0,0,1,.44,3.32v.4H104.66v.5a19.68,19.68,0,0,0,.37,4,10.38,10.38,0,0,0,1.17,3.13,5.52,5.52,0,0,0,2.1,2.08,6.17,6.17,0,0,0,3.07.73,8.77,8.77,0,0,0,2.13-.22,4.2,4.2,0,0,0,1.59-.77,7.1,7.1,0,0,0,1.19-1.2,20.11,20.11,0,0,0,1.19-1.82l.82.55a10.21,10.21,0,0,1-3.35,4,8.14,8.14,0,0,1-4.78,1.49,11.41,11.41,0,0,1-4.56-.86,8.39,8.39,0,0,1-3.23-2.38,10.63,10.63,0,0,1-1.87-3.48A13.67,13.67,0,0,1,99.87,75.43Zm4.79-2.54,9.06-.08q0-7-4.09-7a4.14,4.14,0,0,0-3.51,1.94A9.19,9.19,0,0,0,104.66,72.89Z"/></g></g></g></svg>